<svg width="46" height="48" viewBox="0 0 46 48" fill="none" xmlns="http://www.w3.org/2000/svg">
<rect y="0.812744" width="46" height="46.5" fill="#2D2D32"/>
<path fill-rule="evenodd" clip-rule="evenodd" d="M36.1139 31.9387V16.1593C36.1139 14.7022 35.6164 13.4583 34.6213 12.4632C33.5906 11.4326 32.3468 10.9351 30.8897 10.9351H15.1103C13.6531 10.9351 12.4448 11.4681 11.4142 12.4632C10.3835 13.4583 9.88599 14.7022 9.88599 16.1593V31.9387C9.88599 33.4314 10.3835 34.6753 11.4142 35.6704C12.4093 36.6655 13.6531 37.163 15.1103 37.163H30.8897C32.3823 37.163 33.6262 36.6655 34.6213 35.6704C35.6164 34.6397 36.1139 33.3958 36.1139 31.9387ZM33.5551 20.1397V30.6238C33.5551 31.69 33.1642 32.614 32.3468 33.3958C31.5649 34.1777 30.6409 34.5686 29.5392 34.5686H16.4252C15.3235 34.5686 14.3995 34.1777 13.6531 33.3958C12.9068 32.614 12.5159 31.69 12.5159 30.6238V20.1397H17.7402C17.3492 20.7439 17.0294 21.348 16.7806 21.9878C16.5318 22.663 16.4252 23.3382 16.4252 24.0846C16.4252 24.973 16.6029 25.826 16.9583 26.6079C17.3137 27.3897 17.7757 28.065 18.3443 28.6691C18.9129 29.2733 19.6237 29.7353 20.4411 30.0907C21.2585 30.4461 22.1115 30.6238 23 30.6238C23.924 30.6238 24.7769 30.4461 25.5588 30.0907C26.3762 29.7353 27.0514 29.2733 27.6201 28.6691C28.1887 28.1005 28.6507 27.3897 29.0061 26.6079C29.3615 25.826 29.5392 25.0086 29.5392 24.0846C29.5392 23.3382 29.4326 22.6275 29.1838 21.9878C28.935 21.348 28.6507 20.7083 28.2953 20.1397H33.5551ZM33.5551 18.7892V17.4743C33.5551 16.3726 33.1642 15.4485 32.3823 14.7022C31.6004 13.9559 30.6764 13.565 29.5747 13.565H16.4607C15.359 13.565 14.435 13.9559 13.6887 14.7022C12.9424 15.4485 12.5514 16.3726 12.5514 17.4743V18.7892H19.1262C19.6948 18.3983 20.3345 18.0784 21.0098 17.8297C21.685 17.5809 22.3603 17.4743 23.071 17.4743C23.7818 17.4743 24.4926 17.5809 25.0968 17.8297C25.7365 18.0784 26.3406 18.3983 26.9448 18.7892H33.5551ZM25.8076 21.277C26.5894 22.0233 26.9804 22.9829 26.9804 24.0846C26.9804 25.1863 26.625 26.1103 25.8076 26.8922C25.0257 27.6385 24.1017 27.9939 23.0355 27.9939C21.8982 27.9939 20.9742 27.6385 20.1924 26.8922C19.446 26.1458 19.0551 25.1863 19.0551 24.0846C19.0551 22.9829 19.4105 22.0233 20.1924 21.277C20.9742 20.5306 21.9338 20.1397 23.0355 20.1397C24.1017 20.1397 25.0257 20.5306 25.8076 21.277Z" fill="white"/>
</svg>
