<svg width="46" height="48" viewBox="0 0 46 48" fill="none" xmlns="http://www.w3.org/2000/svg">
<rect y="0.812744" width="46" height="46.5" fill="#2D2D32"/>
<path fill-rule="evenodd" clip-rule="evenodd" d="M17.1944 13.8113C17.1944 14.6287 16.8745 15.304 16.2703 15.8726C15.6662 16.4412 14.8843 16.69 13.8892 16.69C12.8941 16.69 12.1122 16.4057 11.5436 15.8726C10.975 15.304 10.6907 14.6287 10.6907 13.8113C10.6907 12.9228 10.975 12.2476 11.5792 11.679C12.1833 11.1459 12.9652 10.8616 13.9603 10.8616C14.8843 10.8616 15.5951 11.1459 16.1993 11.679C16.839 12.2476 17.1588 12.9584 17.1944 13.8113ZM37.3095 26.4633V36.2366H31.5877V27.103C31.5877 25.9657 31.3745 25.0062 30.9125 24.2599C30.486 23.5135 29.7397 23.1581 28.7446 23.1581C27.9272 23.1581 27.2875 23.3714 26.8255 23.7978C26.3635 24.2243 26.0081 24.7219 25.7948 25.255C25.6882 25.4327 25.6527 25.6459 25.6527 25.8947V26.641V36.2366H19.9664V28.2758V19.1067H25.6527V21.5233C25.6171 21.5233 25.5816 21.5589 25.5816 21.63H25.6527V21.5233C26.0436 20.9192 26.6122 20.315 27.3586 19.6398C28.1049 19.0001 29.2421 18.6802 30.8059 18.6802C32.6894 18.6802 34.2532 19.3199 35.497 20.5638C36.7054 21.8077 37.3095 23.7623 37.3095 26.4633ZM16.7679 19.1067H11.0461V36.2366H16.7679V19.1067Z" fill="white"/>
</svg>
