<svg width="46" height="48" viewBox="0 0 46 48" fill="none" xmlns="http://www.w3.org/2000/svg">
<rect y="0.812744" width="46" height="46.5" fill="#2D2D32"/>
<path d="M39.0888 16.522C38.8045 16.984 38.378 17.5526 37.7739 18.1923C37.0276 18.9386 36.4589 19.4006 36.1035 19.6139V20.6445C36.1035 22.3148 35.7837 24.1273 35.1084 26.0465C34.1133 28.8541 32.443 31.3063 30.1685 33.3675C26.9344 36.0685 23.2739 37.3835 19.1158 37.3835C15.7751 37.3835 12.6832 36.495 9.91113 34.6825C10.3376 34.718 10.8707 34.7536 11.5459 34.7536C13.394 34.7536 15.2065 34.2916 17.0545 33.332C17.5876 33.0477 18.1562 32.6568 18.7604 32.1947C17.6942 32.1947 16.6636 31.8749 15.6329 31.2352C14.4602 30.4889 13.6428 29.4227 13.1452 28.0367C13.5361 28.1077 13.8915 28.1433 14.2114 28.1433H14.4246L15.1354 28.1077C15.5619 28.0367 15.8106 27.9656 15.8106 27.93C15.704 27.93 15.4553 27.8234 14.9932 27.6457C14.3535 27.468 13.6783 27.006 12.8964 26.3663C11.6881 25.1224 11.0839 23.6653 11.0839 22.0305C12.0435 22.4925 12.932 22.7413 13.7138 22.7413V22.7058C13.394 22.5636 13.003 22.2082 12.541 21.6396C11.617 20.4668 11.1195 19.1519 11.1195 17.6592C11.1195 16.7352 11.3682 15.7756 11.9013 14.7805C13.2874 16.3798 14.6023 17.5526 15.8817 18.3345C17.5165 19.3651 19.4356 20.1825 21.6391 20.7156C22.9185 20.9288 23.807 21.0354 24.269 21.0354C24.1624 20.5379 24.0913 20.0759 24.0913 19.6849C24.0913 18.0146 24.6954 16.593 25.9038 15.4202C27.1121 14.283 28.4981 13.7144 30.0974 13.7144C31.6611 13.7144 33.1182 14.3185 34.4332 15.5624C34.5753 15.5624 35.0018 15.4558 35.7837 15.207C36.6366 14.9582 37.454 14.5673 38.2359 14.1053C37.9871 14.8161 37.5606 15.5979 36.9209 16.3798C36.3168 16.9129 35.8903 17.2327 35.6415 17.3394V17.4104C36.4589 17.446 37.5962 17.1617 39.0888 16.522Z" fill="white"/>
</svg>
