<svg width="1292" height="480" viewBox="0 0 1292 480" fill="none" xmlns="http://www.w3.org/2000/svg">
<g clip-path="url(#clip0)">
<g filter="url(#filter0_d)">
<path d="M1291.5 250H0.5V479H1291.5V250Z" fill="white"/>
</g>
<g clip-path="url(#clip1)">
<path d="M78.0272 411.062C78.0272 411.698 77.9072 412.352 77.6672 413.024C77.4392 413.684 77.1332 414.35 76.7492 415.022C76.3772 415.694 75.9572 416.354 75.4892 417.002C75.0212 417.638 74.5532 418.244 74.0852 418.82L73.2032 419.594V419.666L74.3552 419.468H78.2792V420.8H71.1152V420.278C71.3792 420.002 71.6972 419.66 72.0692 419.252C72.4412 418.844 72.8252 418.394 73.2212 417.902C73.6292 417.398 74.0252 416.87 74.4092 416.318C74.8052 415.754 75.1592 415.184 75.4712 414.608C75.7952 414.032 76.0532 413.462 76.2452 412.898C76.4372 412.334 76.5332 411.8 76.5332 411.296C76.5332 410.708 76.3652 410.222 76.0292 409.838C75.6932 409.442 75.1832 409.244 74.4992 409.244C74.0432 409.244 73.5992 409.34 73.1672 409.532C72.7352 409.712 72.3632 409.922 72.0512 410.162L71.4572 409.136C71.8772 408.776 72.3752 408.494 72.9512 408.29C73.5272 408.086 74.1452 407.984 74.8052 407.984C75.3212 407.984 75.7772 408.062 76.1732 408.218C76.5692 408.362 76.9052 408.572 77.1812 408.848C77.4572 409.124 77.6672 409.454 77.8112 409.838C77.9552 410.21 78.0272 410.618 78.0272 411.062Z" fill="#2D2D32"/>
<path d="M80.7929 414.5C80.7929 412.34 81.1409 410.714 81.8369 409.622C82.5449 408.53 83.5709 407.984 84.9149 407.984C86.3669 407.984 87.4169 408.524 88.0649 409.604C88.7249 410.672 89.0549 412.304 89.0549 414.5C89.0549 416.66 88.7009 418.286 87.9929 419.378C87.2969 420.47 86.2709 421.016 84.9149 421.016C83.4869 421.016 82.4429 420.446 81.7829 419.306C81.1229 418.166 80.7929 416.564 80.7929 414.5ZM82.2869 414.5C82.2869 415.28 82.3349 415.994 82.4309 416.642C82.5389 417.278 82.7009 417.83 82.9169 418.298C83.1329 418.754 83.4029 419.114 83.7269 419.378C84.0629 419.63 84.4589 419.756 84.9149 419.756C85.8269 419.756 86.4929 419.336 86.9129 418.496C87.3449 417.644 87.5609 416.312 87.5609 414.5C87.5609 413.732 87.5129 413.024 87.4169 412.376C87.3329 411.728 87.1829 411.17 86.9669 410.702C86.7629 410.234 86.4929 409.874 86.1569 409.622C85.8209 409.37 85.4069 409.244 84.9149 409.244C84.0149 409.244 83.3489 409.67 82.9169 410.522C82.4969 411.374 82.2869 412.7 82.2869 414.5Z" fill="#2D2D32"/>
<path d="M91.9825 419.468H94.5025V410.756L94.6825 409.694L93.9625 410.54L91.9825 411.962L91.2985 411.044L95.2585 407.984H95.9065V419.468H98.3725V420.8H91.9825V419.468Z" fill="#2D2D32"/>
<path d="M108.914 417.002C108.914 417.554 108.83 418.076 108.662 418.568C108.494 419.048 108.248 419.474 107.924 419.846C107.6 420.206 107.198 420.494 106.718 420.71C106.238 420.914 105.692 421.016 105.08 421.016C104.48 421.016 103.94 420.92 103.46 420.728C102.98 420.536 102.566 420.254 102.218 419.882C101.87 419.498 101.6 419.03 101.408 418.478C101.228 417.926 101.138 417.29 101.138 416.57C101.138 415.382 101.288 414.29 101.588 413.294C101.9 412.286 102.326 411.41 102.866 410.666C103.406 409.922 104.042 409.322 104.774 408.866C105.518 408.398 106.322 408.104 107.186 407.984L107.492 409.136C106.82 409.256 106.208 409.484 105.656 409.82C105.104 410.156 104.618 410.57 104.198 411.062C103.79 411.554 103.454 412.106 103.19 412.718C102.926 413.33 102.746 413.96 102.65 414.608C102.842 414.284 103.166 413.99 103.622 413.726C104.078 413.45 104.636 413.312 105.296 413.312C106.424 413.312 107.306 413.636 107.942 414.284C108.59 414.932 108.914 415.838 108.914 417.002ZM107.42 417.146C107.42 416.294 107.222 415.652 106.826 415.22C106.43 414.788 105.818 414.572 104.99 414.572C104.402 414.572 103.892 414.716 103.46 415.004C103.04 415.292 102.746 415.616 102.578 415.976C102.554 416.144 102.542 416.282 102.542 416.39C102.542 416.498 102.542 416.618 102.542 416.75C102.542 417.122 102.59 417.488 102.686 417.848C102.794 418.208 102.956 418.532 103.172 418.82C103.388 419.096 103.652 419.324 103.964 419.504C104.288 419.672 104.666 419.756 105.098 419.756C105.446 419.756 105.758 419.69 106.034 419.558C106.322 419.426 106.568 419.246 106.772 419.018C106.976 418.79 107.132 418.514 107.24 418.19C107.36 417.866 107.42 417.518 107.42 417.146Z" fill="#2D2D32"/>
<path d="M289.574 411.062C289.574 411.698 289.454 412.352 289.214 413.024C288.986 413.684 288.68 414.35 288.296 415.022C287.924 415.694 287.504 416.354 287.036 417.002C286.568 417.638 286.1 418.244 285.632 418.82L284.75 419.594V419.666L285.902 419.468H289.826V420.8H282.662V420.278C282.926 420.002 283.244 419.66 283.616 419.252C283.988 418.844 284.372 418.394 284.768 417.902C285.176 417.398 285.572 416.87 285.956 416.318C286.352 415.754 286.706 415.184 287.018 414.608C287.342 414.032 287.6 413.462 287.792 412.898C287.984 412.334 288.08 411.8 288.08 411.296C288.08 410.708 287.912 410.222 287.576 409.838C287.24 409.442 286.73 409.244 286.046 409.244C285.59 409.244 285.146 409.34 284.714 409.532C284.282 409.712 283.91 409.922 283.598 410.162L283.004 409.136C283.424 408.776 283.922 408.494 284.498 408.29C285.074 408.086 285.692 407.984 286.352 407.984C286.868 407.984 287.324 408.062 287.72 408.218C288.116 408.362 288.452 408.572 288.728 408.848C289.004 409.124 289.214 409.454 289.358 409.838C289.502 410.21 289.574 410.618 289.574 411.062Z" fill="#2D2D32"/>
<path d="M292.34 414.5C292.34 412.34 292.688 410.714 293.384 409.622C294.092 408.53 295.118 407.984 296.462 407.984C297.914 407.984 298.964 408.524 299.612 409.604C300.272 410.672 300.602 412.304 300.602 414.5C300.602 416.66 300.248 418.286 299.54 419.378C298.844 420.47 297.818 421.016 296.462 421.016C295.034 421.016 293.99 420.446 293.33 419.306C292.67 418.166 292.34 416.564 292.34 414.5ZM293.834 414.5C293.834 415.28 293.882 415.994 293.978 416.642C294.086 417.278 294.248 417.83 294.464 418.298C294.68 418.754 294.95 419.114 295.274 419.378C295.61 419.63 296.006 419.756 296.462 419.756C297.374 419.756 298.04 419.336 298.46 418.496C298.892 417.644 299.108 416.312 299.108 414.5C299.108 413.732 299.06 413.024 298.964 412.376C298.88 411.728 298.73 411.17 298.514 410.702C298.31 410.234 298.04 409.874 297.704 409.622C297.368 409.37 296.954 409.244 296.462 409.244C295.562 409.244 294.896 409.67 294.464 410.522C294.044 411.374 293.834 412.7 293.834 414.5Z" fill="#2D2D32"/>
<path d="M303.529 419.468H306.049V410.756L306.229 409.694L305.509 410.54L303.529 411.962L302.845 411.044L306.805 407.984H307.453V419.468H309.919V420.8H303.529V419.468Z" fill="#2D2D32"/>
<path d="M313.585 420.8L318.103 410.252L318.895 409.37L317.833 409.532H312.703V408.2H320.227V408.686L315.043 420.8H313.585Z" fill="#2D2D32"/>
<path d="M501.121 411.062C501.121 411.698 501.001 412.352 500.761 413.024C500.533 413.684 500.227 414.35 499.843 415.022C499.471 415.694 499.051 416.354 498.583 417.002C498.115 417.638 497.647 418.244 497.179 418.82L496.297 419.594V419.666L497.449 419.468H501.373V420.8H494.209V420.278C494.473 420.002 494.791 419.66 495.163 419.252C495.535 418.844 495.919 418.394 496.315 417.902C496.723 417.398 497.119 416.87 497.503 416.318C497.899 415.754 498.253 415.184 498.565 414.608C498.889 414.032 499.147 413.462 499.339 412.898C499.531 412.334 499.627 411.8 499.627 411.296C499.627 410.708 499.459 410.222 499.123 409.838C498.787 409.442 498.277 409.244 497.593 409.244C497.137 409.244 496.693 409.34 496.261 409.532C495.829 409.712 495.457 409.922 495.145 410.162L494.551 409.136C494.971 408.776 495.469 408.494 496.045 408.29C496.621 408.086 497.239 407.984 497.899 407.984C498.415 407.984 498.871 408.062 499.267 408.218C499.663 408.362 499.999 408.572 500.275 408.848C500.551 409.124 500.761 409.454 500.905 409.838C501.049 410.21 501.121 410.618 501.121 411.062Z" fill="#2D2D32"/>
<path d="M503.887 414.5C503.887 412.34 504.235 410.714 504.931 409.622C505.639 408.53 506.665 407.984 508.009 407.984C509.461 407.984 510.511 408.524 511.159 409.604C511.819 410.672 512.149 412.304 512.149 414.5C512.149 416.66 511.795 418.286 511.087 419.378C510.391 420.47 509.365 421.016 508.009 421.016C506.581 421.016 505.537 420.446 504.877 419.306C504.217 418.166 503.887 416.564 503.887 414.5ZM505.381 414.5C505.381 415.28 505.429 415.994 505.525 416.642C505.633 417.278 505.795 417.83 506.011 418.298C506.227 418.754 506.497 419.114 506.821 419.378C507.157 419.63 507.553 419.756 508.009 419.756C508.921 419.756 509.587 419.336 510.007 418.496C510.439 417.644 510.655 416.312 510.655 414.5C510.655 413.732 510.607 413.024 510.511 412.376C510.427 411.728 510.277 411.17 510.061 410.702C509.857 410.234 509.587 409.874 509.251 409.622C508.915 409.37 508.501 409.244 508.009 409.244C507.109 409.244 506.443 409.67 506.011 410.522C505.591 411.374 505.381 412.7 505.381 414.5Z" fill="#2D2D32"/>
<path d="M515.076 419.468H517.596V410.756L517.776 409.694L517.056 410.54L515.076 411.962L514.392 411.044L518.352 407.984H519V419.468H521.466V420.8H515.076V419.468Z" fill="#2D2D32"/>
<path d="M524.376 417.794C524.376 417.038 524.574 416.384 524.97 415.832C525.366 415.268 525.984 414.758 526.824 414.302C526.524 414.122 526.242 413.936 525.978 413.744C525.726 413.54 525.498 413.312 525.294 413.06C525.102 412.808 524.946 412.526 524.826 412.214C524.718 411.902 524.664 411.542 524.664 411.134C524.664 410.666 524.742 410.24 524.898 409.856C525.066 409.472 525.3 409.142 525.6 408.866C525.912 408.59 526.278 408.374 526.698 408.218C527.13 408.062 527.616 407.984 528.156 407.984C528.66 407.984 529.116 408.056 529.524 408.2C529.932 408.344 530.274 408.542 530.55 408.794C530.838 409.046 531.06 409.346 531.216 409.694C531.372 410.042 531.45 410.426 531.45 410.846C531.45 411.53 531.294 412.136 530.982 412.664C530.67 413.18 530.154 413.69 529.434 414.194C529.746 414.374 530.04 414.572 530.316 414.788C530.604 415.004 530.85 415.244 531.054 415.508C531.27 415.772 531.438 416.072 531.558 416.408C531.678 416.732 531.738 417.104 531.738 417.524C531.738 418.04 531.654 418.514 531.486 418.946C531.318 419.366 531.072 419.732 530.748 420.044C530.424 420.344 530.028 420.584 529.56 420.764C529.092 420.932 528.558 421.016 527.958 421.016C527.382 421.016 526.872 420.932 526.428 420.764C525.984 420.596 525.606 420.368 525.294 420.08C524.994 419.792 524.766 419.456 524.61 419.072C524.454 418.676 524.376 418.25 524.376 417.794ZM530.334 417.614C530.334 417.254 530.262 416.942 530.118 416.678C529.974 416.402 529.782 416.156 529.542 415.94C529.314 415.712 529.05 415.508 528.75 415.328C528.45 415.148 528.138 414.974 527.814 414.806C527.082 415.214 526.56 415.67 526.248 416.174C525.936 416.678 525.78 417.158 525.78 417.614C525.78 417.902 525.828 418.178 525.924 418.442C526.02 418.706 526.164 418.934 526.356 419.126C526.548 419.318 526.782 419.474 527.058 419.594C527.346 419.702 527.676 419.756 528.048 419.756C528.348 419.756 528.636 419.714 528.912 419.63C529.188 419.534 529.428 419.402 529.632 419.234C529.848 419.054 530.016 418.832 530.136 418.568C530.268 418.292 530.334 417.974 530.334 417.614ZM526.068 411.098C526.068 411.434 526.134 411.734 526.266 411.998C526.398 412.25 526.572 412.478 526.788 412.682C527.016 412.886 527.274 413.078 527.562 413.258C527.85 413.426 528.15 413.588 528.462 413.744C529.002 413.324 529.398 412.91 529.65 412.502C529.914 412.094 530.046 411.644 530.046 411.152C530.046 410.54 529.854 410.072 529.47 409.748C529.098 409.412 528.648 409.244 528.12 409.244C527.796 409.244 527.508 409.298 527.256 409.406C527.004 409.514 526.788 409.652 526.608 409.82C526.428 409.988 526.29 410.186 526.194 410.414C526.11 410.63 526.068 410.858 526.068 411.098Z" fill="#2D2D32"/>
<path d="M712.668 411.062C712.668 411.698 712.548 412.352 712.308 413.024C712.08 413.684 711.774 414.35 711.39 415.022C711.018 415.694 710.598 416.354 710.13 417.002C709.662 417.638 709.194 418.244 708.726 418.82L707.844 419.594V419.666L708.996 419.468H712.92V420.8H705.756V420.278C706.02 420.002 706.338 419.66 706.71 419.252C707.082 418.844 707.466 418.394 707.862 417.902C708.27 417.398 708.666 416.87 709.05 416.318C709.446 415.754 709.8 415.184 710.112 414.608C710.436 414.032 710.694 413.462 710.886 412.898C711.078 412.334 711.174 411.8 711.174 411.296C711.174 410.708 711.006 410.222 710.67 409.838C710.334 409.442 709.824 409.244 709.14 409.244C708.684 409.244 708.24 409.34 707.808 409.532C707.376 409.712 707.004 409.922 706.692 410.162L706.098 409.136C706.518 408.776 707.016 408.494 707.592 408.29C708.168 408.086 708.786 407.984 709.446 407.984C709.962 407.984 710.418 408.062 710.814 408.218C711.21 408.362 711.546 408.572 711.822 408.848C712.098 409.124 712.308 409.454 712.452 409.838C712.596 410.21 712.668 410.618 712.668 411.062Z" fill="#2D2D32"/>
<path d="M715.434 414.5C715.434 412.34 715.782 410.714 716.478 409.622C717.186 408.53 718.212 407.984 719.556 407.984C721.008 407.984 722.058 408.524 722.706 409.604C723.366 410.672 723.696 412.304 723.696 414.5C723.696 416.66 723.342 418.286 722.634 419.378C721.938 420.47 720.912 421.016 719.556 421.016C718.128 421.016 717.084 420.446 716.424 419.306C715.764 418.166 715.434 416.564 715.434 414.5ZM716.928 414.5C716.928 415.28 716.976 415.994 717.072 416.642C717.18 417.278 717.342 417.83 717.558 418.298C717.774 418.754 718.044 419.114 718.368 419.378C718.704 419.63 719.1 419.756 719.556 419.756C720.468 419.756 721.134 419.336 721.554 418.496C721.986 417.644 722.202 416.312 722.202 414.5C722.202 413.732 722.154 413.024 722.058 412.376C721.974 411.728 721.824 411.17 721.608 410.702C721.404 410.234 721.134 409.874 720.798 409.622C720.462 409.37 720.048 409.244 719.556 409.244C718.656 409.244 717.99 409.67 717.558 410.522C717.138 411.374 716.928 412.7 716.928 414.5Z" fill="#2D2D32"/>
<path d="M726.623 419.468H729.143V410.756L729.323 409.694L728.603 410.54L726.623 411.962L725.939 411.044L729.899 407.984H730.547V419.468H733.013V420.8H726.623V419.468Z" fill="#2D2D32"/>
<path d="M735.635 412.016C735.635 411.44 735.719 410.906 735.887 410.414C736.055 409.922 736.301 409.496 736.625 409.136C736.949 408.776 737.351 408.494 737.831 408.29C738.323 408.086 738.893 407.984 739.541 407.984C740.765 407.984 741.719 408.38 742.403 409.172C743.087 409.964 743.429 411.08 743.429 412.52C743.429 413.876 743.273 415.064 742.961 416.084C742.661 417.092 742.241 417.944 741.701 418.64C741.161 419.336 740.519 419.882 739.775 420.278C739.043 420.662 738.245 420.908 737.381 421.016L737.057 419.864C737.753 419.756 738.377 419.552 738.929 419.252C739.493 418.952 739.973 418.574 740.369 418.118C740.777 417.662 741.107 417.146 741.359 416.57C741.611 415.982 741.785 415.346 741.881 414.662C741.557 415.046 741.197 415.316 740.801 415.472C740.417 415.616 739.907 415.688 739.271 415.688C738.779 415.688 738.311 415.61 737.867 415.454C737.435 415.286 737.051 415.046 736.715 414.734C736.379 414.422 736.115 414.038 735.923 413.582C735.731 413.126 735.635 412.604 735.635 412.016ZM737.129 411.872C737.129 412.724 737.351 413.366 737.795 413.798C738.251 414.218 738.845 414.428 739.577 414.428C740.165 414.428 740.669 414.332 741.089 414.14C741.509 413.948 741.809 413.696 741.989 413.384C742.013 413.228 742.025 413.09 742.025 412.97C742.025 412.85 742.025 412.724 742.025 412.592C742.025 412.16 741.971 411.746 741.863 411.35C741.767 410.942 741.617 410.582 741.413 410.27C741.209 409.946 740.939 409.694 740.603 409.514C740.279 409.334 739.895 409.244 739.451 409.244C738.719 409.244 738.149 409.478 737.741 409.946C737.333 410.402 737.129 411.044 737.129 411.872Z" fill="#2D2D32"/>
<path d="M924.215 411.062C924.215 411.698 924.095 412.352 923.855 413.024C923.627 413.684 923.321 414.35 922.937 415.022C922.565 415.694 922.145 416.354 921.677 417.002C921.209 417.638 920.741 418.244 920.273 418.82L919.391 419.594V419.666L920.543 419.468H924.467V420.8H917.303V420.278C917.567 420.002 917.885 419.66 918.257 419.252C918.629 418.844 919.013 418.394 919.409 417.902C919.817 417.398 920.213 416.87 920.597 416.318C920.993 415.754 921.347 415.184 921.659 414.608C921.983 414.032 922.241 413.462 922.433 412.898C922.625 412.334 922.721 411.8 922.721 411.296C922.721 410.708 922.553 410.222 922.217 409.838C921.881 409.442 921.371 409.244 920.687 409.244C920.231 409.244 919.787 409.34 919.355 409.532C918.923 409.712 918.551 409.922 918.239 410.162L917.645 409.136C918.065 408.776 918.563 408.494 919.139 408.29C919.715 408.086 920.333 407.984 920.993 407.984C921.509 407.984 921.965 408.062 922.361 408.218C922.757 408.362 923.093 408.572 923.369 408.848C923.645 409.124 923.855 409.454 923.999 409.838C924.143 410.21 924.215 410.618 924.215 411.062Z" fill="#2D2D32"/>
<path d="M926.98 414.5C926.98 412.34 927.328 410.714 928.024 409.622C928.732 408.53 929.758 407.984 931.102 407.984C932.554 407.984 933.604 408.524 934.252 409.604C934.912 410.672 935.242 412.304 935.242 414.5C935.242 416.66 934.888 418.286 934.18 419.378C933.484 420.47 932.458 421.016 931.102 421.016C929.674 421.016 928.63 420.446 927.97 419.306C927.31 418.166 926.98 416.564 926.98 414.5ZM928.474 414.5C928.474 415.28 928.522 415.994 928.618 416.642C928.726 417.278 928.888 417.83 929.104 418.298C929.32 418.754 929.59 419.114 929.914 419.378C930.25 419.63 930.646 419.756 931.102 419.756C932.014 419.756 932.68 419.336 933.1 418.496C933.532 417.644 933.748 416.312 933.748 414.5C933.748 413.732 933.7 413.024 933.604 412.376C933.52 411.728 933.37 411.17 933.154 410.702C932.95 410.234 932.68 409.874 932.344 409.622C932.008 409.37 931.594 409.244 931.102 409.244C930.202 409.244 929.536 409.67 929.104 410.522C928.684 411.374 928.474 412.7 928.474 414.5Z" fill="#2D2D32"/>
<path d="M944.254 411.062C944.254 411.698 944.134 412.352 943.894 413.024C943.666 413.684 943.36 414.35 942.976 415.022C942.604 415.694 942.184 416.354 941.716 417.002C941.248 417.638 940.78 418.244 940.312 418.82L939.43 419.594V419.666L940.582 419.468H944.506V420.8H937.342V420.278C937.606 420.002 937.924 419.66 938.296 419.252C938.668 418.844 939.052 418.394 939.448 417.902C939.856 417.398 940.252 416.87 940.636 416.318C941.032 415.754 941.386 415.184 941.698 414.608C942.022 414.032 942.28 413.462 942.472 412.898C942.664 412.334 942.76 411.8 942.76 411.296C942.76 410.708 942.592 410.222 942.256 409.838C941.92 409.442 941.41 409.244 940.726 409.244C940.27 409.244 939.826 409.34 939.394 409.532C938.962 409.712 938.59 409.922 938.278 410.162L937.684 409.136C938.104 408.776 938.602 408.494 939.178 408.29C939.754 408.086 940.372 407.984 941.032 407.984C941.548 407.984 942.004 408.062 942.4 408.218C942.796 408.362 943.132 408.572 943.408 408.848C943.684 409.124 943.894 409.454 944.038 409.838C944.182 410.21 944.254 410.618 944.254 411.062Z" fill="#2D2D32"/>
<path d="M947.02 414.5C947.02 412.34 947.368 410.714 948.064 409.622C948.772 408.53 949.798 407.984 951.142 407.984C952.594 407.984 953.644 408.524 954.292 409.604C954.952 410.672 955.282 412.304 955.282 414.5C955.282 416.66 954.928 418.286 954.22 419.378C953.524 420.47 952.498 421.016 951.142 421.016C949.714 421.016 948.67 420.446 948.01 419.306C947.35 418.166 947.02 416.564 947.02 414.5ZM948.514 414.5C948.514 415.28 948.562 415.994 948.658 416.642C948.766 417.278 948.928 417.83 949.144 418.298C949.36 418.754 949.63 419.114 949.954 419.378C950.29 419.63 950.686 419.756 951.142 419.756C952.054 419.756 952.72 419.336 953.14 418.496C953.572 417.644 953.788 416.312 953.788 414.5C953.788 413.732 953.74 413.024 953.644 412.376C953.56 411.728 953.41 411.17 953.194 410.702C952.99 410.234 952.72 409.874 952.384 409.622C952.048 409.37 951.634 409.244 951.142 409.244C950.242 409.244 949.576 409.67 949.144 410.522C948.724 411.374 948.514 412.7 948.514 414.5Z" fill="#2D2D32"/>
<path d="M1135.76 411.062C1135.76 411.698 1135.64 412.352 1135.4 413.024C1135.17 413.684 1134.87 414.35 1134.48 415.022C1134.11 415.694 1133.69 416.354 1133.22 417.002C1132.76 417.638 1132.29 418.244 1131.82 418.82L1130.94 419.594V419.666L1132.09 419.468H1136.01V420.8H1128.85V420.278C1129.11 420.002 1129.43 419.66 1129.8 419.252C1130.18 418.844 1130.56 418.394 1130.96 417.902C1131.36 417.398 1131.76 416.87 1132.14 416.318C1132.54 415.754 1132.89 415.184 1133.21 414.608C1133.53 414.032 1133.79 413.462 1133.98 412.898C1134.17 412.334 1134.27 411.8 1134.27 411.296C1134.27 410.708 1134.1 410.222 1133.76 409.838C1133.43 409.442 1132.92 409.244 1132.23 409.244C1131.78 409.244 1131.33 409.34 1130.9 409.532C1130.47 409.712 1130.1 409.922 1129.79 410.162L1129.19 409.136C1129.61 408.776 1130.11 408.494 1130.69 408.29C1131.26 408.086 1131.88 407.984 1132.54 407.984C1133.06 407.984 1133.51 408.062 1133.91 408.218C1134.3 408.362 1134.64 408.572 1134.92 408.848C1135.19 409.124 1135.4 409.454 1135.55 409.838C1135.69 410.21 1135.76 410.618 1135.76 411.062Z" fill="#2D2D32"/>
<path d="M1138.53 414.5C1138.53 412.34 1138.88 410.714 1139.57 409.622C1140.28 408.53 1141.31 407.984 1142.65 407.984C1144.1 407.984 1145.15 408.524 1145.8 409.604C1146.46 410.672 1146.79 412.304 1146.79 414.5C1146.79 416.66 1146.44 418.286 1145.73 419.378C1145.03 420.47 1144.01 421.016 1142.65 421.016C1141.22 421.016 1140.18 420.446 1139.52 419.306C1138.86 418.166 1138.53 416.564 1138.53 414.5ZM1140.02 414.5C1140.02 415.28 1140.07 415.994 1140.17 416.642C1140.27 417.278 1140.44 417.83 1140.65 418.298C1140.87 418.754 1141.14 419.114 1141.46 419.378C1141.8 419.63 1142.19 419.756 1142.65 419.756C1143.56 419.756 1144.23 419.336 1144.65 418.496C1145.08 417.644 1145.3 416.312 1145.3 414.5C1145.3 413.732 1145.25 413.024 1145.15 412.376C1145.07 411.728 1144.92 411.17 1144.7 410.702C1144.5 410.234 1144.23 409.874 1143.89 409.622C1143.56 409.37 1143.14 409.244 1142.65 409.244C1141.75 409.244 1141.08 409.67 1140.65 410.522C1140.23 411.374 1140.02 412.7 1140.02 414.5Z" fill="#2D2D32"/>
<path d="M1155.8 411.062C1155.8 411.698 1155.68 412.352 1155.44 413.024C1155.21 413.684 1154.91 414.35 1154.52 415.022C1154.15 415.694 1153.73 416.354 1153.26 417.002C1152.79 417.638 1152.33 418.244 1151.86 418.82L1150.98 419.594V419.666L1152.13 419.468H1156.05V420.8H1148.89V420.278C1149.15 420.002 1149.47 419.66 1149.84 419.252C1150.21 418.844 1150.6 418.394 1150.99 417.902C1151.4 417.398 1151.8 416.87 1152.18 416.318C1152.58 415.754 1152.93 415.184 1153.24 414.608C1153.57 414.032 1153.83 413.462 1154.02 412.898C1154.21 412.334 1154.31 411.8 1154.31 411.296C1154.31 410.708 1154.14 410.222 1153.8 409.838C1153.47 409.442 1152.96 409.244 1152.27 409.244C1151.82 409.244 1151.37 409.34 1150.94 409.532C1150.51 409.712 1150.14 409.922 1149.82 410.162L1149.23 409.136C1149.65 408.776 1150.15 408.494 1150.72 408.29C1151.3 408.086 1151.92 407.984 1152.58 407.984C1153.09 407.984 1153.55 408.062 1153.95 408.218C1154.34 408.362 1154.68 408.572 1154.95 408.848C1155.23 409.124 1155.44 409.454 1155.58 409.838C1155.73 410.21 1155.8 410.618 1155.8 411.062Z" fill="#2D2D32"/>
<path d="M1159.74 419.468H1162.26V410.756L1162.44 409.694L1161.72 410.54L1159.74 411.962L1159.05 411.044L1163.01 407.984H1163.66V419.468H1166.13V420.8H1159.74V419.468Z" fill="#2D2D32"/>
<path fill-rule="evenodd" clip-rule="evenodd" d="M88.1855 331.4V333.9H87.1855V331.4H88.1855ZM88.1855 341.9V345.9H87.1855V341.9H88.1855ZM88.1855 353.9V357.9H87.1855V353.9H88.1855ZM88.1855 365.9V369.9H87.1855V365.9H88.1855ZM88.1855 377.9V380.4H87.1855V377.9H88.1855Z" fill="#A7A7AD"/>
<path fill-rule="evenodd" clip-rule="evenodd" d="M299.197 316V318.585H298.197V316H299.197ZM299.197 327.095V331.265H298.197V327.095H299.197ZM299.197 339.775V343.945H298.197V339.775H299.197ZM299.197 352.455V356.625H298.197V352.455H299.197ZM299.197 365.135V369.305H298.197V365.135H299.197ZM299.197 377.815V380.4H298.197V377.815H299.197Z" fill="#A7A7AD"/>
<path fill-rule="evenodd" clip-rule="evenodd" d="M510.744 262V264.467H509.744V262H510.744ZM510.744 272.272V276.207H509.744V272.272H510.744ZM510.744 284.012V287.947H509.744V284.012H510.744ZM510.744 295.752V299.687H509.744V295.752H510.744ZM510.744 307.492V311.427H509.744V307.492H510.744ZM510.744 319.232V323.167H509.744V319.232H510.744ZM510.744 330.972V334.907H509.744V330.972H510.744ZM510.744 342.712V346.647H509.744V342.712H510.744ZM510.744 354.452V358.387H509.744V354.452H510.744ZM510.744 366.192V370.127H509.744V366.192H510.744ZM510.744 377.932V380.4H509.744V377.932H510.744Z" fill="#A7A7AD"/>
<path fill-rule="evenodd" clip-rule="evenodd" d="M722.291 96.4004V98.8743H721.291V96.4004H722.291ZM722.291 106.718V110.666H721.291V106.718H722.291ZM722.291 118.51V122.458H721.291V118.51H722.291ZM722.291 130.301V134.249H721.291V130.301H722.291ZM722.291 142.093V146.041H721.291V142.093H722.291ZM722.291 153.885V157.833H721.291V153.885H722.291ZM722.291 165.676V169.624H721.291V165.676H722.291ZM722.291 177.468V181.416H721.291V177.468H722.291ZM722.291 189.26V193.208H721.291V189.26H722.291ZM722.291 201.051V204.999H721.291V201.051H722.291ZM722.291 212.843V216.791H721.291V212.843H722.291ZM722.291 224.635V228.583H721.291V224.635H722.291ZM722.291 236.426V240.374H721.291V236.426H722.291ZM722.291 248.218V252.166H721.291V248.218H722.291ZM722.291 260.01V263.958H721.291V260.01H722.291ZM722.291 271.801V275.749H721.291V271.801H722.291ZM722.291 283.593V287.541H721.291V283.593H722.291ZM722.291 295.385V299.333H721.291V295.385H722.291ZM722.291 307.176V311.124H721.291V307.176H722.291ZM722.291 318.968V322.916H721.291V318.968H722.291ZM722.291 330.76V334.708H721.291V330.76H722.291ZM722.291 342.551V346.499H721.291V342.551H722.291ZM722.291 354.343V358.291H721.291V354.343H722.291ZM722.291 366.135V370.083H721.291V366.135H722.291ZM722.291 377.926V380.4H721.291V377.926H722.291Z" fill="#A7A7AD"/>
<path fill-rule="evenodd" clip-rule="evenodd" d="M933.838 130V132.485H932.838V130H933.838ZM933.838 140.392V144.361H932.838V140.392H933.838ZM933.838 152.268V156.237H932.838V152.268H933.838ZM933.838 164.144V168.113H932.838V164.144H933.838ZM933.838 176.02V179.989H932.838V176.02H933.838ZM933.838 187.896V191.865H932.838V187.896H933.838ZM933.838 199.773V203.742H932.838V199.773H933.838ZM933.838 211.649V215.618H932.838V211.649H933.838ZM933.838 223.525V227.494H932.838V223.525H933.838ZM933.838 235.401V239.37H932.838V235.401H933.838ZM933.838 247.277V251.246H932.838V247.277H933.838ZM933.838 259.154V263.123H932.838V259.154H933.838ZM933.838 271.03V274.999H932.838V271.03H933.838ZM933.838 282.906V286.875H932.838V282.906H933.838ZM933.838 294.782V298.751H932.838V294.782H933.838ZM933.838 306.658V310.627H932.838V306.658H933.838ZM933.838 318.534V322.503H932.838V318.534H933.838ZM933.838 330.411V334.38H932.838V330.411H933.838ZM933.838 342.287V346.256H932.838V342.287H933.838ZM933.838 354.163V358.132H932.838V354.163H933.838ZM933.838 366.039V370.008H932.838V366.039H933.838ZM933.838 377.915V380.4H932.838V377.915H933.838Z" fill="#A7A7AD"/>
<path fill-rule="evenodd" clip-rule="evenodd" d="M1145.38 85V87.472H1144.38V85H1145.38ZM1145.38 95.304V99.248H1144.38V95.304H1145.38ZM1145.38 107.08V111.024H1144.38V107.08H1145.38ZM1145.38 118.856V122.8H1144.38V118.856H1145.38ZM1145.38 130.632V134.576H1144.38V130.632H1145.38ZM1145.38 142.408V146.352H1144.38V142.408H1145.38ZM1145.38 154.184V158.128H1144.38V154.184H1145.38ZM1145.38 165.96V169.904H1144.38V165.96H1145.38ZM1145.38 177.736V181.68H1144.38V177.736H1145.38ZM1145.38 189.512V193.456H1144.38V189.512H1145.38ZM1145.38 201.288V205.232H1144.38V201.288H1145.38ZM1145.38 213.064V217.008H1144.38V213.064H1145.38ZM1145.38 224.84V228.784H1144.38V224.84H1145.38ZM1145.38 236.616V240.56H1144.38V236.616H1145.38ZM1145.38 248.392V252.336H1144.38V248.392H1145.38ZM1145.38 260.168V264.112H1144.38V260.168H1145.38ZM1145.38 271.944V275.888H1144.38V271.944H1145.38ZM1145.38 283.72V287.664H1144.38V283.72H1145.38ZM1145.38 295.496V299.44H1144.38V295.496H1145.38ZM1145.38 307.272V311.216H1144.38V307.272H1145.38ZM1145.38 319.048V322.992H1144.38V319.048H1145.38ZM1145.38 330.824V334.768H1144.38V330.824H1145.38ZM1145.38 342.6V346.544H1144.38V342.6H1145.38ZM1145.38 354.376V358.32H1144.38V354.376H1145.38ZM1145.38 366.152V370.096H1144.38V366.152H1145.38ZM1145.38 377.928V380.4H1144.38V377.928H1145.38Z" fill="#A7A7AD"/>
<g filter="url(#filter1_d)">
<path fill-rule="evenodd" clip-rule="evenodd" d="M1210.43 76.4872C1210.99 80.5913 1208.12 84.3722 1204.01 84.9321L989.574 114.185C981.711 115.258 974.019 117.338 966.687 120.374L914.024 142.182C886.308 153.659 855.058 153.034 827.824 140.457L752.403 105.626C730.074 95.3149 703.577 104.174 691.941 125.842L646.197 211.02C627.466 245.899 591.08 267.659 551.49 267.659H473.415C463.009 267.659 452.678 269.415 442.857 272.852L221.486 350.332C205.84 355.808 189.14 357.592 172.69 355.543L76.576 343.576C72.4656 343.064 69.5484 339.317 70.0602 335.206C70.572 331.096 74.3191 328.179 78.4295 328.691L174.544 340.658C188.698 342.421 203.068 340.886 216.531 336.174L437.902 258.694C449.316 254.699 461.322 252.659 473.415 252.659H551.49C585.556 252.659 616.865 233.935 632.982 203.923L678.726 118.745C694.116 90.0876 729.16 78.3706 758.692 92.0085L834.113 126.839C857.547 137.661 884.437 138.199 908.285 128.323L960.948 106.516C969.469 102.987 978.408 100.57 987.546 99.3231L1201.99 70.0697C1206.09 69.5098 1209.87 72.383 1210.43 76.4872Z" fill="url(#paint0_linear)"/>
<path fill-rule="evenodd" clip-rule="evenodd" d="M1210.43 76.4872C1210.99 80.5913 1208.12 84.3722 1204.01 84.9321L989.574 114.185C981.711 115.258 974.019 117.338 966.687 120.374L914.024 142.182C886.308 153.659 855.058 153.034 827.824 140.457L752.403 105.626C730.074 95.3149 703.577 104.174 691.941 125.842L646.197 211.02C627.466 245.899 591.08 267.659 551.49 267.659H473.415C463.009 267.659 452.678 269.415 442.857 272.852L221.486 350.332C205.84 355.808 189.14 357.592 172.69 355.543L76.576 343.576C72.4656 343.064 69.5484 339.317 70.0602 335.206C70.572 331.096 74.3191 328.179 78.4295 328.691L174.544 340.658C188.698 342.421 203.068 340.886 216.531 336.174L437.902 258.694C449.316 254.699 461.322 252.659 473.415 252.659H551.49C585.556 252.659 616.865 233.935 632.982 203.923L678.726 118.745C694.116 90.0876 729.16 78.3706 758.692 92.0085L834.113 126.839C857.547 137.661 884.437 138.199 908.285 128.323L960.948 106.516C969.469 102.987 978.408 100.57 987.546 99.3231L1201.99 70.0697C1206.09 69.5098 1209.87 72.383 1210.43 76.4872Z" fill="#2D2D32"/>
</g>
<g filter="url(#filter2_ii)">
<path d="M1201.99 70.0697C1206.09 69.5098 1209.87 72.383 1210.43 76.4872C1210.98 80.5108 1208.23 84.2238 1204.25 84.8954L1204.01 84.9321L989.574 114.185C982.053 115.211 974.688 117.159 967.645 119.984L966.687 120.374L914.024 142.182C886.585 153.544 855.682 153.045 828.642 140.83L827.824 140.457L752.403 105.627C730.298 95.418 704.107 103.999 692.294 125.196L691.941 125.842L646.197 211.02C627.654 245.55 591.806 267.222 552.677 267.652L551.49 267.659H473.415C463.345 267.659 453.345 269.303 443.809 272.525L442.857 272.852L221.486 350.332C206.13 355.707 189.758 357.524 173.604 355.653L172.69 355.543L76.576 343.576C72.4656 343.064 69.5484 339.317 70.0602 335.206C70.562 331.177 74.1734 328.294 78.1881 328.664L78.4295 328.691L174.544 340.658C188.403 342.384 202.469 340.949 215.688 336.464L216.531 336.174L437.902 258.694C448.98 254.817 460.616 252.781 472.348 252.664L473.415 252.659H551.49C585.216 252.659 616.239 234.307 632.494 204.82L632.982 203.923L678.726 118.745C693.962 90.3741 728.462 78.6066 757.804 91.607L758.692 92.0085L834.113 126.839C857.312 137.553 883.899 138.187 907.568 128.617L908.285 128.323L960.948 106.516C969.128 103.128 977.694 100.765 986.451 99.4783L987.546 99.3231L1201.99 70.0697Z" fill="#2D2D32"/>
</g>
<g filter="url(#filter3_ii)">
<path d="M1201.99 70.0697C1206.09 69.5098 1209.87 72.383 1210.43 76.4872C1210.98 80.5108 1208.23 84.2238 1204.25 84.8954L1204.01 84.9321L989.574 114.185C982.053 115.211 974.688 117.159 967.645 119.984L966.687 120.374L914.024 142.182C886.585 153.544 855.682 153.045 828.642 140.83L827.824 140.457L752.403 105.627C730.298 95.418 704.107 103.999 692.294 125.196L691.941 125.842L646.197 211.02C627.654 245.55 591.806 267.222 552.677 267.652L551.49 267.659H473.415C463.345 267.659 453.345 269.303 443.809 272.525L442.857 272.852L221.486 350.332C206.13 355.707 189.758 357.524 173.604 355.653L172.69 355.543L76.576 343.576C72.4656 343.064 69.5484 339.317 70.0602 335.206C70.562 331.177 74.1734 328.294 78.1881 328.664L78.4295 328.691L174.544 340.658C188.403 342.384 202.469 340.949 215.688 336.464L216.531 336.174L437.902 258.694C448.98 254.817 460.616 252.781 472.348 252.664L473.415 252.659H551.49C585.216 252.659 616.239 234.307 632.494 204.82L632.982 203.923L678.726 118.745C693.962 90.3741 728.462 78.6066 757.804 91.607L758.692 92.0085L834.113 126.839C857.312 137.553 883.899 138.187 907.568 128.617L908.285 128.323L960.948 106.516C969.128 103.128 977.694 100.765 986.451 99.4783L987.546 99.3231L1201.99 70.0697Z" fill="#2D2D32"/>
</g>
</g>
<path d="M709.537 59.4002H719.365V58.6162L718.245 58.4202C717.265 58.2242 717.041 58.0842 717.041 56.3762V39.9402L716.285 39.7722C714.801 41.4802 712.309 42.6842 709.565 43.2442V44.0842L711.945 44.2522V56.3762C711.945 58.0842 711.693 58.1962 710.713 58.4202L709.537 58.6162V59.4002Z" fill="black"/>
<path d="M720.755 59.4002H734.083L734.503 53.6042H733.691C732.823 55.5642 732.627 55.8162 731.227 55.8162H724.171V55.6482C729.799 52.5682 734.587 49.2642 734.587 45.2882C734.587 41.5082 731.619 39.6602 727.447 39.6602C723.219 39.6602 721.063 41.3122 721.063 43.1322C721.063 44.3082 721.763 45.0082 723.051 45.0082C724.647 45.0082 725.403 44.3642 725.487 42.1242C725.543 41.1162 725.823 40.7522 726.999 40.7522C728.511 40.7522 729.547 41.7042 729.547 44.7002C729.547 47.7802 728.539 49.5162 726.635 51.6442C724.983 53.5202 723.275 55.1162 720.755 57.1322V59.4002Z" fill="black"/>
<path d="M745.234 59.7362C749.322 59.7362 754.026 56.7402 754.026 49.5722C754.026 42.7962 749.602 39.6602 745.43 39.6602C741.818 39.6602 736.666 42.4602 736.666 49.9362C736.666 56.7122 740.782 59.7362 745.234 59.7362ZM745.346 58.6442C742.91 58.6442 741.93 56.6842 741.93 49.5162C741.93 42.3202 743.162 40.7522 745.346 40.7522C747.67 40.7522 748.79 42.4882 748.79 49.9922C748.79 56.6282 747.838 58.6442 745.346 58.6442Z" fill="black"/>
<path d="M504.25 235.864C509.654 235.864 514.05 232.504 514.05 224.86C514.05 218.504 510.466 215.788 506.154 215.788C501.45 215.788 498.594 218.392 498.594 222.172C498.594 225.924 501.03 227.884 504.642 227.884C506.546 227.884 507.918 227.184 508.842 226.596C508.674 232.84 507.33 234.744 504.726 234.744C503.83 234.744 503.606 234.464 503.466 233.624C503.186 231.888 502.598 231.244 501.254 231.244C499.77 231.244 499.182 231.916 499.182 233.036C499.182 234.828 501.142 235.864 504.25 235.864ZM506.434 226.204C504.53 226.204 503.634 225.084 503.634 221.892C503.634 218.308 504.138 216.852 506.07 216.852C508.394 216.852 508.87 219.064 508.87 224.748V225.56C508.198 225.924 507.414 226.204 506.434 226.204Z" fill="black"/>
<path d="M521.243 235.836C526.703 235.836 529.307 233.316 529.307 230.152C529.307 226.988 526.759 225.476 523.399 225.196V225.112C526.983 224.384 528.523 222.48 528.523 220.408C528.523 217.496 525.919 215.76 521.859 215.76C518.387 215.76 515.895 216.936 515.895 218.924C515.895 219.988 516.511 220.632 517.827 220.632C519.451 220.632 519.871 219.988 520.067 217.916C520.151 217.048 520.487 216.852 521.271 216.852C522.867 216.852 523.707 218.056 523.707 220.744C523.707 223.768 522.755 224.804 520.347 224.804H519.227V226.008H520.599C522.979 226.008 524.071 226.848 524.071 230.012C524.071 232.924 523.371 234.744 521.159 234.744C519.787 234.744 519.647 234.464 519.423 233.204C519.199 231.16 518.471 230.684 517.155 230.684C515.867 230.684 515.195 231.356 515.195 232.532C515.195 234.604 517.211 235.836 521.243 235.836Z" fill="black"/>
<path d="M294.867 285.836C299.123 285.836 302.343 283.148 302.343 279.956C302.343 277.436 300.803 275.84 297.863 274.384V274.3C299.767 273.404 301.587 272.004 301.587 270.24C301.587 267.132 298.451 265.76 295.231 265.76C291.731 265.76 288.427 267.832 288.427 271.276C288.427 273.376 289.631 275.14 291.871 276.316V276.428C289.435 277.464 287.615 278.976 287.615 281.02C287.615 284.128 290.639 285.836 294.867 285.836ZM295.119 284.688C292.431 284.688 291.255 283.26 291.255 280.684C291.255 278.78 292.039 277.716 292.767 276.848C296.939 278.752 298.675 279.62 298.675 281.636C298.675 283.624 297.135 284.688 295.119 284.688ZM296.855 273.824C293.607 272.452 291.955 271.36 291.955 269.596C291.955 267.944 293.159 266.908 295.007 266.908C297.051 266.908 298.143 268 298.143 270.324C298.143 271.948 297.527 273.04 296.855 273.824Z" fill="black"/>
<path d="M312.882 285.836C316.97 285.836 321.674 282.84 321.674 275.672C321.674 268.896 317.25 265.76 313.078 265.76C309.466 265.76 304.314 268.56 304.314 276.036C304.314 282.812 308.43 285.836 312.882 285.836ZM312.994 284.744C310.558 284.744 309.578 282.784 309.578 275.616C309.578 268.42 310.81 266.852 312.994 266.852C315.318 266.852 316.438 268.588 316.438 276.092C316.438 282.728 315.486 284.744 312.994 284.744Z" fill="black"/>
<path d="M78.962 297H84.338C84.87 290.308 86.158 285.044 90.078 279.724V277.596H77.086L76.582 283.42H77.394C78.178 281.404 78.346 281.152 79.522 281.152H87.978C83.89 285.408 80.39 290.252 78.962 297Z" fill="black"/>
<path d="M99.4179 297.336C103.506 297.336 108.21 294.34 108.21 287.172C108.21 280.396 103.786 277.26 99.6139 277.26C96.0019 277.26 90.8499 280.06 90.8499 287.536C90.8499 294.312 94.9659 297.336 99.4179 297.336ZM99.5299 296.244C97.0939 296.244 96.1139 294.284 96.1139 287.116C96.1139 279.92 97.3459 278.352 99.5299 278.352C101.854 278.352 102.974 280.088 102.974 287.592C102.974 294.228 102.022 296.244 99.5299 296.244Z" fill="black"/>
<path d="M920.537 88.9002H930.365V88.1162L929.245 87.9202C928.265 87.7242 928.041 87.5842 928.041 85.8762V69.4402L927.285 69.2722C925.801 70.9802 923.309 72.1842 920.565 72.7442V73.5842L922.945 73.7522V85.8762C922.945 87.5842 922.693 87.6962 921.713 87.9202L920.537 88.1162V88.9002Z" fill="black"/>
<path d="M940.855 89.2362C944.943 89.2362 949.647 86.2402 949.647 79.0722C949.647 72.2962 945.223 69.1602 941.051 69.1602C937.439 69.1602 932.287 71.9602 932.287 79.4362C932.287 86.2122 936.403 89.2362 940.855 89.2362ZM940.967 88.1442C938.531 88.1442 937.551 86.1842 937.551 79.0162C937.551 71.8202 938.783 70.2522 940.967 70.2522C943.291 70.2522 944.411 71.9882 944.411 79.4922C944.411 86.1282 943.459 88.1442 940.967 88.1442Z" fill="black"/>
<path d="M957.308 89.2642C962.712 89.2642 967.108 85.9042 967.108 78.2602C967.108 71.9042 963.524 69.1882 959.212 69.1882C954.508 69.1882 951.652 71.7922 951.652 75.5722C951.652 79.3242 954.088 81.2842 957.7 81.2842C959.604 81.2842 960.976 80.5842 961.9 79.9962C961.732 86.2402 960.388 88.1442 957.784 88.1442C956.888 88.1442 956.664 87.8642 956.524 87.0242C956.244 85.2882 955.656 84.6442 954.312 84.6442C952.828 84.6442 952.24 85.3162 952.24 86.4362C952.24 88.2282 954.2 89.2642 957.308 89.2642ZM959.492 79.6042C957.588 79.6042 956.692 78.4842 956.692 75.2922C956.692 71.7082 957.196 70.2522 959.128 70.2522C961.452 70.2522 961.928 72.4642 961.928 78.1482V78.9602C961.256 79.3242 960.472 79.6042 959.492 79.6042Z" fill="black"/>
<path d="M1136.54 50.3997H1146.37V49.6157L1145.25 49.4197C1144.27 49.2237 1144.04 49.0837 1144.04 47.3757V30.9397L1143.29 30.7717C1141.8 32.4797 1139.31 33.6837 1136.57 34.2437V35.0837L1138.95 35.2517V47.3757C1138.95 49.0837 1138.69 49.1957 1137.71 49.4197L1136.54 49.6157V50.3997Z" fill="black"/>
<path d="M1147.98 50.3997H1157.81V49.6157L1156.69 49.4197C1155.71 49.2237 1155.48 49.0837 1155.48 47.3757V30.9397L1154.73 30.7717C1153.24 32.4797 1150.75 33.6837 1148.01 34.2437V35.0837L1150.39 35.2517V47.3757C1150.39 49.0837 1150.13 49.1957 1149.15 49.4197L1147.98 49.6157V50.3997Z" fill="black"/>
<path d="M1164.8 50.7357C1169.73 50.7357 1172.81 47.7957 1172.81 44.0157C1172.81 39.8437 1169.76 37.7437 1165.53 37.7437C1163.79 37.7437 1162.81 37.9957 1162.25 38.1917L1162.64 34.5237H1171.66L1172.22 29.5117H1171.38C1170.71 30.7997 1170.54 30.9957 1169.67 30.9957H1161.66L1160.49 41.8037L1160.8 42.0277C1161.44 41.8037 1162.42 41.6077 1163.9 41.6077C1166.65 41.6077 1168.52 42.6997 1168.52 45.5837C1168.52 48.3277 1167.26 49.6437 1165.08 49.6437C1163.88 49.6437 1163.6 49.4197 1163.48 48.3837C1163.34 46.2557 1162.64 45.7517 1161.24 45.7517C1159.93 45.7517 1159.26 46.4797 1159.26 47.5437C1159.26 49.3917 1161.19 50.7357 1164.8 50.7357Z" fill="black"/>
</g>
<defs>
<filter id="filter0_d" x="-107.5" y="177" width="1565" height="503" filterUnits="userSpaceOnUse" color-interpolation-filters="sRGB">
<feFlood flood-opacity="0" result="BackgroundImageFix"/>
<feColorMatrix in="SourceAlpha" type="matrix" values="0 0 0 0 0 0 0 0 0 0 0 0 0 0 0 0 0 0 127 0"/>
<feOffset dx="29" dy="64"/>
<feGaussianBlur stdDeviation="68.5"/>
<feColorMatrix type="matrix" values="0 0 0 0 0.654658 0 0 0 0 0.654658 0 0 0 0 0.680261 0 0 0 0.164117 0"/>
<feBlend mode="normal" in2="BackgroundImageFix" result="effect1_dropShadow"/>
<feBlend mode="normal" in="SourceGraphic" in2="effect1_dropShadow" result="shape"/>
</filter>
<filter id="filter1_d" x="70.002" y="70" width="1235.5" height="337.367" filterUnits="userSpaceOnUse" color-interpolation-filters="sRGB">
<feFlood flood-opacity="0" result="BackgroundImageFix"/>
<feColorMatrix in="SourceAlpha" type="matrix" values="0 0 0 0 0 0 0 0 0 0 0 0 0 0 0 0 0 0 127 0"/>
<feOffset dx="79" dy="35"/>
<feGaussianBlur stdDeviation="8"/>
<feColorMatrix type="matrix" values="0 0 0 0 0.843137 0 0 0 0 0.843137 0 0 0 0 0.854902 0 0 0 0.904693 0"/>
<feBlend mode="normal" in2="BackgroundImageFix" result="effect1_dropShadow"/>
<feBlend mode="normal" in="SourceGraphic" in2="effect1_dropShadow" result="shape"/>
</filter>
<filter id="filter2_ii" x="70.002" y="65" width="1140.5" height="291.367" filterUnits="userSpaceOnUse" color-interpolation-filters="sRGB">
<feFlood flood-opacity="0" result="BackgroundImageFix"/>
<feBlend mode="normal" in="SourceGraphic" in2="BackgroundImageFix" result="shape"/>
<feColorMatrix in="SourceAlpha" type="matrix" values="0 0 0 0 0 0 0 0 0 0 0 0 0 0 0 0 0 0 127 0" result="hardAlpha"/>
<feOffset dy="-5"/>
<feGaussianBlur stdDeviation="4.5"/>
<feComposite in2="hardAlpha" operator="arithmetic" k2="-1" k3="1"/>
<feColorMatrix type="matrix" values="0 0 0 0 0.777314 0 0 0 0 0.777314 0 0 0 0 0.935887 0 0 0 1 0"/>
<feBlend mode="normal" in2="shape" result="effect1_innerShadow"/>
<feColorMatrix in="SourceAlpha" type="matrix" values="0 0 0 0 0 0 0 0 0 0 0 0 0 0 0 0 0 0 127 0" result="hardAlpha"/>
<feOffset dy="-2"/>
<feGaussianBlur stdDeviation="4"/>
<feComposite in2="hardAlpha" operator="arithmetic" k2="-1" k3="1"/>
<feColorMatrix type="matrix" values="0 0 0 0 0.176471 0 0 0 0 0.176471 0 0 0 0 0.196078 0 0 0 1 0"/>
<feBlend mode="normal" in2="effect1_innerShadow" result="effect2_innerShadow"/>
</filter>
<filter id="filter3_ii" x="70.002" y="65" width="1140.5" height="291.367" filterUnits="userSpaceOnUse" color-interpolation-filters="sRGB">
<feFlood flood-opacity="0" result="BackgroundImageFix"/>
<feBlend mode="normal" in="SourceGraphic" in2="BackgroundImageFix" result="shape"/>
<feColorMatrix in="SourceAlpha" type="matrix" values="0 0 0 0 0 0 0 0 0 0 0 0 0 0 0 0 0 0 127 0" result="hardAlpha"/>
<feOffset dy="-5"/>
<feGaussianBlur stdDeviation="4.5"/>
<feComposite in2="hardAlpha" operator="arithmetic" k2="-1" k3="1"/>
<feColorMatrix type="matrix" values="0 0 0 0 0.777314 0 0 0 0 0.777314 0 0 0 0 0.935887 0 0 0 1 0"/>
<feBlend mode="normal" in2="shape" result="effect1_innerShadow"/>
<feColorMatrix in="SourceAlpha" type="matrix" values="0 0 0 0 0 0 0 0 0 0 0 0 0 0 0 0 0 0 127 0" result="hardAlpha"/>
<feOffset dy="-2"/>
<feGaussianBlur stdDeviation="4"/>
<feComposite in2="hardAlpha" operator="arithmetic" k2="-1" k3="1"/>
<feColorMatrix type="matrix" values="0 0 0 0 0.176471 0 0 0 0 0.176471 0 0 0 0 0.196078 0 0 0 1 0"/>
<feBlend mode="normal" in2="effect1_innerShadow" result="effect2_innerShadow"/>
</filter>
<linearGradient id="paint0_linear" x1="605.425" y1="470.821" x2="738.476" y2="-42.8252" gradientUnits="userSpaceOnUse">
<stop stop-color="#D7D7DA"/>
<stop offset="1" stop-color="#2D2D32"/>
</linearGradient>
<clipPath id="clip0">
<rect width="1291" height="479" fill="white" transform="translate(0.5 0.400391)"/>
</clipPath>
<clipPath id="clip1">
<rect width="1141" height="362" fill="white" transform="translate(70 69.4004)"/>
</clipPath>
</defs>
</svg>
