<svg width="353" height="543" viewBox="0 0 353 543" fill="none" xmlns="http://www.w3.org/2000/svg">
<g filter="url(#filter0_f)">
<path fill-rule="evenodd" clip-rule="evenodd" d="M337.721 37.3028C341.868 37.3028 345.23 33.9411 345.23 29.7942C345.23 25.6474 341.868 22.2856 337.721 22.2856C333.575 22.2856 330.213 25.6474 330.213 29.7942C330.213 33.9411 333.575 37.3028 337.721 37.3028ZM345.23 83.1886C345.23 87.3355 341.868 90.6972 337.721 90.6972C333.575 90.6972 330.213 87.3355 330.213 83.1886C330.213 79.0418 333.575 75.68 337.721 75.68C341.868 75.68 345.23 79.0418 345.23 83.1886ZM337.721 144.092C341.868 144.092 345.23 140.73 345.23 136.583C345.23 132.436 341.868 129.074 337.721 129.074C333.575 129.074 330.213 132.436 330.213 136.583C330.213 140.73 333.575 144.092 337.721 144.092ZM345.23 189.977C345.23 194.124 341.868 197.486 337.721 197.486C333.575 197.486 330.213 194.124 330.213 189.977C330.213 185.831 333.575 182.469 337.721 182.469C341.868 182.469 345.23 185.831 345.23 189.977ZM337.721 250.88C341.868 250.88 345.23 247.519 345.23 243.372C345.23 239.225 341.868 235.863 337.721 235.863C333.575 235.863 330.213 239.225 330.213 243.372C330.213 247.519 333.575 250.88 337.721 250.88ZM345.23 296.766C345.23 300.913 341.868 304.275 337.721 304.275C333.575 304.275 330.213 300.913 330.213 296.766C330.213 292.619 333.575 289.258 337.721 289.258C341.868 289.258 345.23 292.619 345.23 296.766ZM337.721 357.669C341.868 357.669 345.23 354.307 345.23 350.161C345.23 346.014 341.868 342.652 337.721 342.652C333.575 342.652 330.213 346.014 330.213 350.161C330.213 354.307 333.575 357.669 337.721 357.669ZM337.721 411.064C341.868 411.064 345.23 407.702 345.23 403.555C345.23 399.408 341.868 396.046 337.721 396.046C333.575 396.046 330.213 399.408 330.213 403.555C330.213 407.702 333.575 411.064 337.721 411.064ZM337.721 467.09C341.868 467.09 345.23 463.729 345.23 459.582C345.23 455.435 341.868 452.073 337.721 452.073C333.575 452.073 330.213 455.435 330.213 459.582C330.213 463.729 333.575 467.09 337.721 467.09ZM345.23 513.741C345.23 517.888 341.868 521.25 337.721 521.25C333.575 521.25 330.213 517.888 330.213 513.741C330.213 509.594 333.575 506.232 337.721 506.232C341.868 506.232 345.23 509.594 345.23 513.741Z" fill="#D7D7DA"/>
</g>
<g filter="url(#filter1_f)">
<path fill-rule="evenodd" clip-rule="evenodd" d="M29.6004 37.3028C33.7473 37.3028 37.109 33.9411 37.109 29.7942C37.109 25.6474 33.7473 22.2856 29.6004 22.2856C25.4535 22.2856 22.0918 25.6474 22.0918 29.7942C22.0918 33.9411 25.4535 37.3028 29.6004 37.3028ZM37.109 83.1886C37.109 87.3355 33.7473 90.6972 29.6004 90.6972C25.4535 90.6972 22.0918 87.3355 22.0918 83.1886C22.0918 79.0418 25.4535 75.68 29.6004 75.68C33.7473 75.68 37.109 79.0418 37.109 83.1886ZM29.6004 144.092C33.7473 144.092 37.109 140.73 37.109 136.583C37.109 132.436 33.7473 129.074 29.6004 129.074C25.4535 129.074 22.0918 132.436 22.0918 136.583C22.0918 140.73 25.4535 144.092 29.6004 144.092ZM37.109 189.977C37.109 194.124 33.7473 197.486 29.6004 197.486C25.4535 197.486 22.0918 194.124 22.0918 189.977C22.0918 185.831 25.4535 182.469 29.6004 182.469C33.7473 182.469 37.109 185.831 37.109 189.977ZM29.6004 250.88C33.7473 250.88 37.109 247.519 37.109 243.372C37.109 239.225 33.7473 235.863 29.6004 235.863C25.4535 235.863 22.0918 239.225 22.0918 243.372C22.0918 247.519 25.4535 250.88 29.6004 250.88ZM37.109 296.766C37.109 300.913 33.7473 304.275 29.6004 304.275C25.4535 304.275 22.0918 300.913 22.0918 296.766C22.0918 292.619 25.4535 289.258 29.6004 289.258C33.7473 289.258 37.109 292.619 37.109 296.766ZM29.6004 357.669C33.7473 357.669 37.109 354.307 37.109 350.161C37.109 346.014 33.7473 342.652 29.6004 342.652C25.4535 342.652 22.0918 346.014 22.0918 350.161C22.0918 354.307 25.4535 357.669 29.6004 357.669ZM29.6004 411.064C33.7473 411.064 37.109 407.702 37.109 403.555C37.109 399.408 33.7473 396.046 29.6004 396.046C25.4535 396.046 22.0918 399.408 22.0918 403.555C22.0918 407.702 25.4535 411.064 29.6004 411.064ZM29.6004 467.09C33.7473 467.09 37.109 463.729 37.109 459.582C37.109 455.435 33.7473 452.073 29.6004 452.073C25.4535 452.073 22.0918 455.435 22.0918 459.582C22.0918 463.729 25.4535 467.09 29.6004 467.09ZM37.109 513.741C37.109 517.888 33.7473 521.25 29.6004 521.25C25.4535 521.25 22.0918 517.888 22.0918 513.741C22.0918 509.594 25.4535 506.232 29.6004 506.232C33.7473 506.232 37.109 509.594 37.109 513.741Z" fill="#D7D7DA"/>
</g>
<g filter="url(#filter2_f)">
<path fill-rule="evenodd" clip-rule="evenodd" d="M293.704 38.5477C297.851 38.5477 301.212 35.186 301.212 31.0391C301.212 26.8922 297.851 23.5305 293.704 23.5305C289.557 23.5305 286.195 26.8922 286.195 31.0391C286.195 35.186 289.557 38.5477 293.704 38.5477ZM301.212 84.4335C301.212 88.5804 297.851 91.9421 293.704 91.9421C289.557 91.9421 286.195 88.5804 286.195 84.4335C286.195 80.2866 289.557 76.9249 293.704 76.9249C297.851 76.9249 301.212 80.2866 301.212 84.4335ZM293.704 145.336C297.851 145.336 301.212 141.975 301.212 137.828C301.212 133.681 297.851 130.319 293.704 130.319C289.557 130.319 286.195 133.681 286.195 137.828C286.195 141.975 289.557 145.336 293.704 145.336ZM301.212 191.222C301.212 195.369 297.851 198.731 293.704 198.731C289.557 198.731 286.195 195.369 286.195 191.222C286.195 187.075 289.557 183.714 293.704 183.714C297.851 183.714 301.212 187.075 301.212 191.222ZM293.704 252.125C297.851 252.125 301.212 248.764 301.212 244.617C301.212 240.47 297.851 237.108 293.704 237.108C289.557 237.108 286.195 240.47 286.195 244.617C286.195 248.764 289.557 252.125 293.704 252.125ZM301.212 298.011C301.212 302.158 297.851 305.52 293.704 305.52C289.557 305.52 286.195 302.158 286.195 298.011C286.195 293.864 289.557 290.503 293.704 290.503C297.851 290.503 301.212 293.864 301.212 298.011ZM293.704 358.914C297.851 358.914 301.212 355.552 301.212 351.405C301.212 347.259 297.851 343.897 293.704 343.897C289.557 343.897 286.195 347.259 286.195 351.405C286.195 355.552 289.557 358.914 293.704 358.914ZM293.704 412.309C297.851 412.309 301.212 408.947 301.212 404.8C301.212 400.653 297.851 397.291 293.704 397.291C289.557 397.291 286.195 400.653 286.195 404.8C286.195 408.947 289.557 412.309 293.704 412.309ZM293.704 468.335C297.851 468.335 301.212 464.974 301.212 460.827C301.212 456.68 297.851 453.318 293.704 453.318C289.557 453.318 286.195 456.68 286.195 460.827C286.195 464.974 289.557 468.335 293.704 468.335ZM301.212 514.986C301.212 519.133 297.851 522.495 293.704 522.495C289.557 522.495 286.195 519.133 286.195 514.986C286.195 510.839 289.557 507.477 293.704 507.477C297.851 507.477 301.212 510.839 301.212 514.986Z" fill="#EFEFEF"/>
</g>
<g filter="url(#filter3_f)">
<path fill-rule="evenodd" clip-rule="evenodd" d="M73.618 38.5477C77.7648 38.5477 81.1265 35.186 81.1265 31.0391C81.1265 26.8922 77.7648 23.5305 73.618 23.5305C69.4711 23.5305 66.1094 26.8922 66.1094 31.0391C66.1094 35.186 69.4711 38.5477 73.618 38.5477ZM81.1265 84.4335C81.1265 88.5804 77.7648 91.9421 73.618 91.9421C69.4711 91.9421 66.1094 88.5804 66.1094 84.4335C66.1094 80.2866 69.4711 76.9249 73.618 76.9249C77.7648 76.9249 81.1265 80.2866 81.1265 84.4335ZM73.618 145.336C77.7648 145.336 81.1265 141.975 81.1265 137.828C81.1265 133.681 77.7648 130.319 73.618 130.319C69.4711 130.319 66.1094 133.681 66.1094 137.828C66.1094 141.975 69.4711 145.336 73.618 145.336ZM81.1265 191.222C81.1265 195.369 77.7648 198.731 73.618 198.731C69.4711 198.731 66.1094 195.369 66.1094 191.222C66.1094 187.075 69.4711 183.714 73.618 183.714C77.7648 183.714 81.1265 187.075 81.1265 191.222ZM73.618 252.125C77.7648 252.125 81.1265 248.764 81.1265 244.617C81.1265 240.47 77.7648 237.108 73.618 237.108C69.4711 237.108 66.1094 240.47 66.1094 244.617C66.1094 248.764 69.4711 252.125 73.618 252.125ZM81.1265 298.011C81.1265 302.158 77.7648 305.52 73.618 305.52C69.4711 305.52 66.1094 302.158 66.1094 298.011C66.1094 293.864 69.4711 290.503 73.618 290.503C77.7648 290.503 81.1265 293.864 81.1265 298.011ZM73.618 358.914C77.7648 358.914 81.1265 355.552 81.1265 351.405C81.1265 347.259 77.7648 343.897 73.618 343.897C69.4711 343.897 66.1094 347.259 66.1094 351.405C66.1094 355.552 69.4711 358.914 73.618 358.914ZM73.618 412.309C77.7648 412.309 81.1265 408.947 81.1265 404.8C81.1265 400.653 77.7648 397.291 73.618 397.291C69.4711 397.291 66.1094 400.653 66.1094 404.8C66.1094 408.947 69.4711 412.309 73.618 412.309ZM73.618 468.335C77.7648 468.335 81.1265 464.974 81.1265 460.827C81.1265 456.68 77.7648 453.318 73.618 453.318C69.4711 453.318 66.1094 456.68 66.1094 460.827C66.1094 464.974 69.4711 468.335 73.618 468.335ZM81.1265 514.986C81.1265 519.133 77.7648 522.495 73.618 522.495C69.4711 522.495 66.1094 519.133 66.1094 514.986C66.1094 510.839 69.4711 507.477 73.618 507.477C77.7648 507.477 81.1265 510.839 81.1265 514.986Z" fill="#EFEFEF"/>
</g>
<g filter="url(#filter4_f)">
<path fill-rule="evenodd" clip-rule="evenodd" d="M249.686 37.9254C253.833 37.9254 257.195 34.5637 257.195 30.4168C257.195 26.2699 253.833 22.9082 249.686 22.9082C245.539 22.9082 242.178 26.2699 242.178 30.4168C242.178 34.5637 245.539 37.9254 249.686 37.9254ZM257.195 83.8112C257.195 87.9581 253.833 91.3198 249.686 91.3198C245.539 91.3198 242.178 87.9581 242.178 83.8112C242.178 79.6643 245.539 76.3026 249.686 76.3026C253.833 76.3026 257.195 79.6643 257.195 83.8112ZM249.686 144.714C253.833 144.714 257.195 141.352 257.195 137.206C257.195 133.059 253.833 129.697 249.686 129.697C245.539 129.697 242.178 133.059 242.178 137.206C242.178 141.352 245.539 144.714 249.686 144.714ZM257.195 190.6C257.195 194.747 253.833 198.109 249.686 198.109C245.539 198.109 242.178 194.747 242.178 190.6C242.178 186.453 245.539 183.091 249.686 183.091C253.833 183.091 257.195 186.453 257.195 190.6ZM249.686 251.503C253.833 251.503 257.195 248.141 257.195 243.994C257.195 239.848 253.833 236.486 249.686 236.486C245.539 236.486 242.178 239.848 242.178 243.994C242.178 248.141 245.539 251.503 249.686 251.503ZM257.195 297.389C257.195 301.536 253.833 304.897 249.686 304.897C245.539 304.897 242.178 301.536 242.178 297.389C242.178 293.242 245.539 289.88 249.686 289.88C253.833 289.88 257.195 293.242 257.195 297.389ZM249.686 358.292C253.833 358.292 257.195 354.93 257.195 350.783C257.195 346.636 253.833 343.275 249.686 343.275C245.539 343.275 242.178 346.636 242.178 350.783C242.178 354.93 245.539 358.292 249.686 358.292ZM249.686 411.686C253.833 411.686 257.195 408.324 257.195 404.178C257.195 400.031 253.833 396.669 249.686 396.669C245.539 396.669 242.178 400.031 242.178 404.178C242.178 408.324 245.539 411.686 249.686 411.686ZM249.686 467.713C253.833 467.713 257.195 464.351 257.195 460.204C257.195 456.057 253.833 452.696 249.686 452.696C245.539 452.696 242.178 456.057 242.178 460.204C242.178 464.351 245.539 467.713 249.686 467.713ZM257.195 514.364C257.195 518.51 253.833 521.872 249.686 521.872C245.539 521.872 242.178 518.51 242.178 514.364C242.178 510.217 245.539 506.855 249.686 506.855C253.833 506.855 257.195 510.217 257.195 514.364Z" fill="#EFEFEF"/>
</g>
<g filter="url(#filter5_f)">
<path fill-rule="evenodd" clip-rule="evenodd" d="M117.636 37.9254C121.782 37.9254 125.144 34.5637 125.144 30.4168C125.144 26.2699 121.782 22.9082 117.636 22.9082C113.489 22.9082 110.127 26.2699 110.127 30.4168C110.127 34.5637 113.489 37.9254 117.636 37.9254ZM125.144 83.8112C125.144 87.9581 121.782 91.3198 117.636 91.3198C113.489 91.3198 110.127 87.9581 110.127 83.8112C110.127 79.6643 113.489 76.3026 117.636 76.3026C121.782 76.3026 125.144 79.6643 125.144 83.8112ZM117.636 144.714C121.782 144.714 125.144 141.352 125.144 137.206C125.144 133.059 121.782 129.697 117.636 129.697C113.489 129.697 110.127 133.059 110.127 137.206C110.127 141.352 113.489 144.714 117.636 144.714ZM125.144 190.6C125.144 194.747 121.782 198.109 117.636 198.109C113.489 198.109 110.127 194.747 110.127 190.6C110.127 186.453 113.489 183.091 117.636 183.091C121.782 183.091 125.144 186.453 125.144 190.6ZM117.636 251.503C121.782 251.503 125.144 248.141 125.144 243.994C125.144 239.848 121.782 236.486 117.636 236.486C113.489 236.486 110.127 239.848 110.127 243.994C110.127 248.141 113.489 251.503 117.636 251.503ZM125.144 297.389C125.144 301.536 121.782 304.897 117.636 304.897C113.489 304.897 110.127 301.536 110.127 297.389C110.127 293.242 113.489 289.88 117.636 289.88C121.782 289.88 125.144 293.242 125.144 297.389ZM117.636 358.292C121.782 358.292 125.144 354.93 125.144 350.783C125.144 346.636 121.782 343.275 117.636 343.275C113.489 343.275 110.127 346.636 110.127 350.783C110.127 354.93 113.489 358.292 117.636 358.292ZM117.636 411.686C121.782 411.686 125.144 408.324 125.144 404.178C125.144 400.031 121.782 396.669 117.636 396.669C113.489 396.669 110.127 400.031 110.127 404.178C110.127 408.324 113.489 411.686 117.636 411.686ZM117.636 467.713C121.782 467.713 125.144 464.351 125.144 460.204C125.144 456.057 121.782 452.696 117.636 452.696C113.489 452.696 110.127 456.057 110.127 460.204C110.127 464.351 113.489 467.713 117.636 467.713ZM125.144 514.364C125.144 518.51 121.782 521.872 117.636 521.872C113.489 521.872 110.127 518.51 110.127 514.364C110.127 510.217 113.489 506.855 117.636 506.855C121.782 506.855 125.144 510.217 125.144 514.364Z" fill="#EFEFEF"/>
</g>
<g filter="url(#filter6_f)">
<path fill-rule="evenodd" clip-rule="evenodd" d="M161.651 36.6803C165.798 36.6803 169.16 33.3186 169.16 29.1717C169.16 25.0248 165.798 21.6631 161.651 21.6631C157.504 21.6631 154.143 25.0248 154.143 29.1717C154.143 33.3186 157.504 36.6803 161.651 36.6803ZM169.16 82.5661C169.16 86.713 165.798 90.0747 161.651 90.0747C157.504 90.0747 154.143 86.713 154.143 82.5661C154.143 78.4192 157.504 75.0575 161.651 75.0575C165.798 75.0575 169.16 78.4192 169.16 82.5661ZM161.651 143.469C165.798 143.469 169.16 140.107 169.16 135.96C169.16 131.814 165.798 128.452 161.651 128.452C157.504 128.452 154.143 131.814 154.143 135.96C154.143 140.107 157.504 143.469 161.651 143.469ZM169.16 189.355C169.16 193.502 165.798 196.863 161.651 196.863C157.504 196.863 154.143 193.502 154.143 189.355C154.143 185.208 157.504 181.846 161.651 181.846C165.798 181.846 169.16 185.208 169.16 189.355ZM161.651 250.258C165.798 250.258 169.16 246.896 169.16 242.749C169.16 238.602 165.798 235.241 161.651 235.241C157.504 235.241 154.143 238.602 154.143 242.749C154.143 246.896 157.504 250.258 161.651 250.258ZM169.16 296.144C169.16 300.291 165.798 303.652 161.651 303.652C157.504 303.652 154.143 300.291 154.143 296.144C154.143 291.997 157.504 288.635 161.651 288.635C165.798 288.635 169.16 291.997 169.16 296.144ZM161.651 357.047C165.798 357.047 169.16 353.685 169.16 349.538C169.16 345.391 165.798 342.029 161.651 342.029C157.504 342.029 154.143 345.391 154.143 349.538C154.143 353.685 157.504 357.047 161.651 357.047ZM161.651 410.441C165.798 410.441 169.16 407.079 169.16 402.932C169.16 398.786 165.798 395.424 161.651 395.424C157.504 395.424 154.143 398.786 154.143 402.932C154.143 407.079 157.504 410.441 161.651 410.441ZM161.651 466.468C165.798 466.468 169.16 463.106 169.16 458.959C169.16 454.812 165.798 451.451 161.651 451.451C157.504 451.451 154.143 454.812 154.143 458.959C154.143 463.106 157.504 466.468 161.651 466.468ZM169.16 513.118C169.16 517.265 165.798 520.627 161.651 520.627C157.504 520.627 154.143 517.265 154.143 513.118C154.143 508.972 157.504 505.61 161.651 505.61C165.798 505.61 169.16 508.972 169.16 513.118Z" fill="#EFEFEF"/>
</g>
<g filter="url(#filter7_f)">
<path fill-rule="evenodd" clip-rule="evenodd" d="M205.669 36.6803C209.816 36.6803 213.177 33.3186 213.177 29.1717C213.177 25.0248 209.816 21.6631 205.669 21.6631C201.522 21.6631 198.16 25.0248 198.16 29.1717C198.16 33.3186 201.522 36.6803 205.669 36.6803ZM213.177 82.5661C213.177 86.713 209.816 90.0747 205.669 90.0747C201.522 90.0747 198.16 86.713 198.16 82.5661C198.16 78.4192 201.522 75.0575 205.669 75.0575C209.816 75.0575 213.177 78.4192 213.177 82.5661ZM205.669 143.469C209.816 143.469 213.177 140.107 213.177 135.96C213.177 131.814 209.816 128.452 205.669 128.452C201.522 128.452 198.16 131.814 198.16 135.96C198.16 140.107 201.522 143.469 205.669 143.469ZM213.177 189.355C213.177 193.502 209.816 196.863 205.669 196.863C201.522 196.863 198.16 193.502 198.16 189.355C198.16 185.208 201.522 181.846 205.669 181.846C209.816 181.846 213.177 185.208 213.177 189.355ZM205.669 250.258C209.816 250.258 213.177 246.896 213.177 242.749C213.177 238.602 209.816 235.241 205.669 235.241C201.522 235.241 198.16 238.602 198.16 242.749C198.16 246.896 201.522 250.258 205.669 250.258ZM213.177 296.144C213.177 300.291 209.816 303.652 205.669 303.652C201.522 303.652 198.16 300.291 198.16 296.144C198.16 291.997 201.522 288.635 205.669 288.635C209.816 288.635 213.177 291.997 213.177 296.144ZM205.669 357.047C209.816 357.047 213.177 353.685 213.177 349.538C213.177 345.391 209.816 342.029 205.669 342.029C201.522 342.029 198.16 345.391 198.16 349.538C198.16 353.685 201.522 357.047 205.669 357.047ZM205.669 410.441C209.816 410.441 213.177 407.079 213.177 402.932C213.177 398.786 209.816 395.424 205.669 395.424C201.522 395.424 198.16 398.786 198.16 402.932C198.16 407.079 201.522 410.441 205.669 410.441ZM205.669 466.468C209.816 466.468 213.177 463.106 213.177 458.959C213.177 454.812 209.816 451.451 205.669 451.451C201.522 451.451 198.16 454.812 198.16 458.959C198.16 463.106 201.522 466.468 205.669 466.468ZM213.177 513.118C213.177 517.265 209.816 520.627 205.669 520.627C201.522 520.627 198.16 517.265 198.16 513.118C198.16 508.972 201.522 505.61 205.669 505.61C209.816 505.61 213.177 508.972 213.177 513.118Z" fill="#EFEFEF"/>
</g>
<defs>
<filter id="filter0_f" x="308.757" y="0.830025" width="57.9284" height="541.875" filterUnits="userSpaceOnUse" color-interpolation-filters="sRGB">
<feFlood flood-opacity="0" result="BackgroundImageFix"/>
<feBlend mode="normal" in="SourceGraphic" in2="BackgroundImageFix" result="shape"/>
<feGaussianBlur stdDeviation="10.7278" result="effect1_foregroundBlur"/>
</filter>
<filter id="filter1_f" x="0.636177" y="0.830025" width="57.9284" height="541.875" filterUnits="userSpaceOnUse" color-interpolation-filters="sRGB">
<feFlood flood-opacity="0" result="BackgroundImageFix"/>
<feBlend mode="normal" in="SourceGraphic" in2="BackgroundImageFix" result="shape"/>
<feGaussianBlur stdDeviation="10.7278" result="effect1_foregroundBlur"/>
</filter>
<filter id="filter2_f" x="273.322" y="10.6571" width="40.7639" height="524.711" filterUnits="userSpaceOnUse" color-interpolation-filters="sRGB">
<feFlood flood-opacity="0" result="BackgroundImageFix"/>
<feBlend mode="normal" in="SourceGraphic" in2="BackgroundImageFix" result="shape"/>
<feGaussianBlur stdDeviation="6.43669" result="effect1_foregroundBlur"/>
</filter>
<filter id="filter3_f" x="53.236" y="10.6571" width="40.7639" height="524.711" filterUnits="userSpaceOnUse" color-interpolation-filters="sRGB">
<feFlood flood-opacity="0" result="BackgroundImageFix"/>
<feBlend mode="normal" in="SourceGraphic" in2="BackgroundImageFix" result="shape"/>
<feGaussianBlur stdDeviation="6.43669" result="effect1_foregroundBlur"/>
</filter>
<filter id="filter4_f" x="233.595" y="14.326" width="32.1817" height="516.128" filterUnits="userSpaceOnUse" color-interpolation-filters="sRGB">
<feFlood flood-opacity="0" result="BackgroundImageFix"/>
<feBlend mode="normal" in="SourceGraphic" in2="BackgroundImageFix" result="shape"/>
<feGaussianBlur stdDeviation="4.29112" result="effect1_foregroundBlur"/>
</filter>
<filter id="filter5_f" x="101.545" y="14.326" width="32.1817" height="516.128" filterUnits="userSpaceOnUse" color-interpolation-filters="sRGB">
<feFlood flood-opacity="0" result="BackgroundImageFix"/>
<feBlend mode="normal" in="SourceGraphic" in2="BackgroundImageFix" result="shape"/>
<feGaussianBlur stdDeviation="4.29112" result="effect1_foregroundBlur"/>
</filter>
<filter id="filter6_f" x="149.851" y="17.372" width="23.5994" height="507.546" filterUnits="userSpaceOnUse" color-interpolation-filters="sRGB">
<feFlood flood-opacity="0" result="BackgroundImageFix"/>
<feBlend mode="normal" in="SourceGraphic" in2="BackgroundImageFix" result="shape"/>
<feGaussianBlur stdDeviation="2.14556" result="effect1_foregroundBlur"/>
</filter>
<filter id="filter7_f" x="193.869" y="17.372" width="23.5994" height="507.546" filterUnits="userSpaceOnUse" color-interpolation-filters="sRGB">
<feFlood flood-opacity="0" result="BackgroundImageFix"/>
<feBlend mode="normal" in="SourceGraphic" in2="BackgroundImageFix" result="shape"/>
<feGaussianBlur stdDeviation="2.14556" result="effect1_foregroundBlur"/>
</filter>
</defs>
</svg>
