<svg width="960" height="1031" viewBox="0 0 960 1031" fill="none" xmlns="http://www.w3.org/2000/svg">
<g filter="url(#filter0_f)">
<path fill-rule="evenodd" clip-rule="evenodd" d="M904.895 69.9781C912.775 69.9781 919.164 63.5895 919.164 55.7088C919.164 47.828 912.775 41.4395 904.895 41.4395C897.014 41.4395 890.625 47.828 890.625 55.7088C890.625 63.5895 897.014 69.9781 904.895 69.9781ZM919.164 157.179C919.164 165.06 912.775 171.449 904.895 171.449C897.014 171.449 890.625 165.06 890.625 157.179C890.625 149.299 897.014 142.91 904.895 142.91C912.775 142.91 919.164 149.299 919.164 157.179ZM904.895 272.919C912.775 272.919 919.164 266.531 919.164 258.65C919.164 250.769 912.775 244.381 904.895 244.381C897.014 244.381 890.625 250.769 890.625 258.65C890.625 266.531 897.014 272.919 904.895 272.919ZM919.164 360.121C919.164 368.001 912.775 374.39 904.895 374.39C897.014 374.39 890.625 368.001 890.625 360.121C890.625 352.24 897.014 345.851 904.895 345.851C912.775 345.851 919.164 352.24 919.164 360.121ZM904.895 475.861C912.775 475.861 919.164 469.472 919.164 461.591C919.164 453.711 912.775 447.322 904.895 447.322C897.014 447.322 890.625 453.711 890.625 461.591C890.625 469.472 897.014 475.861 904.895 475.861ZM919.164 563.062C919.164 570.943 912.775 577.331 904.895 577.331C897.014 577.331 890.625 570.943 890.625 563.062C890.625 555.181 897.014 548.793 904.895 548.793C912.775 548.793 919.164 555.181 919.164 563.062ZM904.895 678.802C912.775 678.802 919.164 672.413 919.164 664.533C919.164 656.652 912.775 650.263 904.895 650.263C897.014 650.263 890.625 656.652 890.625 664.533C890.625 672.413 897.014 678.802 904.895 678.802ZM904.895 780.273C912.775 780.273 919.164 773.884 919.164 766.003C919.164 758.122 912.775 751.734 904.895 751.734C897.014 751.734 890.625 758.122 890.625 766.003C890.625 773.884 897.014 780.273 904.895 780.273ZM904.895 886.746C912.775 886.746 919.164 880.357 919.164 872.476C919.164 864.596 912.775 858.207 904.895 858.207C897.014 858.207 890.625 864.596 890.625 872.476C890.625 880.357 897.014 886.746 904.895 886.746ZM919.164 975.401C919.164 983.281 912.775 989.67 904.895 989.67C897.014 989.67 890.625 983.281 890.625 975.401C890.625 967.52 897.014 961.131 904.895 961.131C912.775 961.131 919.164 967.52 919.164 975.401ZM69.9224 766.003C69.9224 773.884 63.5338 780.273 55.6531 780.273C47.7724 780.273 41.3838 773.884 41.3838 766.003C41.3838 758.122 47.7724 751.734 55.6531 751.734C63.5338 751.734 69.9224 758.122 69.9224 766.003ZM55.6531 886.746C63.5338 886.746 69.9224 880.357 69.9224 872.476C69.9224 864.596 63.5338 858.207 55.6531 858.207C47.7724 858.207 41.3838 864.596 41.3838 872.476C41.3838 880.357 47.7724 886.746 55.6531 886.746ZM69.9224 975.401C69.9224 983.281 63.5338 989.67 55.6531 989.67C47.7724 989.67 41.3838 983.281 41.3838 975.401C41.3838 967.52 47.7724 961.131 55.6531 961.131C63.5338 961.131 69.9224 967.52 69.9224 975.401ZM55.6531 678.802C63.5338 678.802 69.9224 672.413 69.9224 664.533C69.9224 656.652 63.5338 650.263 55.6531 650.263C47.7724 650.263 41.3838 656.652 41.3838 664.533C41.3838 672.413 47.7724 678.802 55.6531 678.802ZM69.9224 563.062C69.9224 570.943 63.5338 577.331 55.6531 577.331C47.7724 577.331 41.3838 570.943 41.3838 563.062C41.3838 555.181 47.7724 548.793 55.6531 548.793C63.5338 548.793 69.9224 555.181 69.9224 563.062ZM55.6531 475.861C63.5338 475.861 69.9224 469.472 69.9224 461.591C69.9224 453.711 63.5338 447.322 55.6531 447.322C47.7724 447.322 41.3838 453.711 41.3838 461.591C41.3838 469.472 47.7724 475.861 55.6531 475.861ZM69.9224 360.121C69.9224 368.001 63.5338 374.39 55.6531 374.39C47.7724 374.39 41.3838 368.001 41.3838 360.121C41.3838 352.24 47.7724 345.851 55.6531 345.851C63.5338 345.851 69.9224 352.24 69.9224 360.121ZM55.6531 272.919C63.5338 272.919 69.9224 266.531 69.9224 258.65C69.9224 250.769 63.5338 244.381 55.6531 244.381C47.7724 244.381 41.3838 250.769 41.3838 258.65C41.3838 266.531 47.7724 272.919 55.6531 272.919ZM69.9224 157.179C69.9224 165.06 63.5338 171.449 55.6531 171.449C47.7724 171.449 41.3838 165.06 41.3838 157.179C41.3838 149.299 47.7724 142.91 55.6531 142.91C63.5338 142.91 69.9224 149.299 69.9224 157.179ZM55.6531 69.9781C63.5338 69.9781 69.9224 63.5895 69.9224 55.7088C69.9224 47.828 63.5338 41.4395 55.6531 41.4395C47.7724 41.4395 41.3838 47.828 41.3838 55.7088C41.3838 63.5895 47.7724 69.9781 55.6531 69.9781Z" fill="#D7D7DA"/>
</g>
<g filter="url(#filter1_f)">
<path fill-rule="evenodd" clip-rule="evenodd" d="M799.691 72.3438C807.572 72.3438 813.96 65.9552 813.96 58.0745C813.96 50.1938 807.572 43.8052 799.691 43.8052C791.81 43.8052 785.422 50.1938 785.422 58.0745C785.422 65.9552 791.81 72.3438 799.691 72.3438ZM813.96 159.545C813.96 167.426 807.572 173.814 799.691 173.814C791.81 173.814 785.422 167.426 785.422 159.545C785.422 151.664 791.81 145.276 799.691 145.276C807.572 145.276 813.96 151.664 813.96 159.545ZM799.691 275.285C807.572 275.285 813.96 268.896 813.96 261.016C813.96 253.135 807.572 246.746 799.691 246.746C791.81 246.746 785.422 253.135 785.422 261.016C785.422 268.896 791.81 275.285 799.691 275.285ZM813.96 362.486C813.96 370.367 807.572 376.756 799.691 376.756C791.81 376.756 785.422 370.367 785.422 362.486C785.422 354.606 791.81 348.217 799.691 348.217C807.572 348.217 813.96 354.606 813.96 362.486ZM799.691 478.226C807.572 478.226 813.96 471.838 813.96 463.957C813.96 456.076 807.572 449.688 799.691 449.688C791.81 449.688 785.422 456.076 785.422 463.957C785.422 471.838 791.81 478.226 799.691 478.226ZM813.96 565.428C813.96 573.308 807.572 579.697 799.691 579.697C791.81 579.697 785.422 573.308 785.422 565.428C785.422 557.547 791.81 551.158 799.691 551.158C807.572 551.158 813.96 557.547 813.96 565.428ZM799.691 681.168C807.572 681.168 813.96 674.779 813.96 666.898C813.96 659.018 807.572 652.629 799.691 652.629C791.81 652.629 785.422 659.018 785.422 666.898C785.422 674.779 791.81 681.168 799.691 681.168ZM799.691 782.638C807.572 782.638 813.96 776.25 813.96 768.369C813.96 760.488 807.572 754.1 799.691 754.1C791.81 754.1 785.422 760.488 785.422 768.369C785.422 776.25 791.81 782.638 799.691 782.638ZM799.691 889.111C807.572 889.111 813.96 882.723 813.96 874.842C813.96 866.961 807.572 860.573 799.691 860.573C791.81 860.573 785.422 866.961 785.422 874.842C785.422 882.723 791.81 889.111 799.691 889.111ZM813.96 977.766C813.96 985.647 807.572 992.036 799.691 992.036C791.81 992.036 785.422 985.647 785.422 977.766C785.422 969.886 791.81 963.497 799.691 963.497C807.572 963.497 813.96 969.886 813.96 977.766ZM172.634 768.369C172.634 776.25 166.245 782.638 158.365 782.638C150.484 782.638 144.095 776.25 144.095 768.369C144.095 760.488 150.484 754.1 158.365 754.1C166.245 754.1 172.634 760.488 172.634 768.369ZM158.365 889.111C166.245 889.111 172.634 882.723 172.634 874.842C172.634 866.961 166.245 860.573 158.365 860.573C150.484 860.573 144.095 866.961 144.095 874.842C144.095 882.723 150.484 889.111 158.365 889.111ZM172.634 977.766C172.634 985.647 166.245 992.036 158.365 992.036C150.484 992.036 144.095 985.647 144.095 977.766C144.095 969.886 150.484 963.497 158.365 963.497C166.245 963.497 172.634 969.886 172.634 977.766ZM158.365 681.168C166.245 681.168 172.634 674.779 172.634 666.898C172.634 659.018 166.245 652.629 158.365 652.629C150.484 652.629 144.095 659.018 144.095 666.898C144.095 674.779 150.484 681.168 158.365 681.168ZM172.634 565.428C172.634 573.308 166.245 579.697 158.365 579.697C150.484 579.697 144.095 573.308 144.095 565.428C144.095 557.547 150.484 551.158 158.365 551.158C166.245 551.158 172.634 557.547 172.634 565.428ZM158.365 478.226C166.245 478.226 172.634 471.838 172.634 463.957C172.634 456.076 166.245 449.688 158.365 449.688C150.484 449.688 144.095 456.076 144.095 463.957C144.095 471.838 150.484 478.226 158.365 478.226ZM172.634 362.486C172.634 370.367 166.245 376.756 158.365 376.756C150.484 376.756 144.095 370.367 144.095 362.486C144.095 354.606 150.484 348.217 158.365 348.217C166.245 348.217 172.634 354.606 172.634 362.486ZM158.365 275.285C166.245 275.285 172.634 268.896 172.634 261.016C172.634 253.135 166.245 246.746 158.365 246.746C150.484 246.746 144.095 253.135 144.095 261.016C144.095 268.896 150.484 275.285 158.365 275.285ZM172.634 159.545C172.634 167.426 166.245 173.814 158.365 173.814C150.484 173.814 144.095 167.426 144.095 159.545C144.095 151.664 150.484 145.276 158.365 145.276C166.245 145.276 172.634 151.664 172.634 159.545ZM158.365 72.3438C166.245 72.3438 172.634 65.9552 172.634 58.0745C172.634 50.1938 166.245 43.8052 158.365 43.8052C150.484 43.8052 144.095 50.1938 144.095 58.0745C144.095 65.9552 150.484 72.3438 158.365 72.3438Z" fill="#EFEFEF"/>
</g>
<g filter="url(#filter2_f)">
<path fill-rule="evenodd" clip-rule="evenodd" d="M722.549 56.8919C722.549 64.7726 716.16 71.1612 708.28 71.1612C700.399 71.1612 694.01 64.7726 694.01 56.8919C694.01 49.0111 700.399 42.6226 708.28 42.6226C716.16 42.6226 722.549 49.0111 722.549 56.8919ZM722.549 158.363C722.549 166.243 716.16 172.632 708.28 172.632C700.399 172.632 694.01 166.243 694.01 158.363C694.01 150.482 700.399 144.093 708.28 144.093C716.16 144.093 722.549 150.482 722.549 158.363ZM722.549 259.833C722.549 267.714 716.16 274.102 708.28 274.102C700.399 274.102 694.01 267.714 694.01 259.833C694.01 251.952 700.399 245.564 708.28 245.564C716.16 245.564 722.549 251.952 722.549 259.833ZM722.549 361.304C722.549 369.184 716.16 375.573 708.28 375.573C700.399 375.573 694.01 369.184 694.01 361.304C694.01 353.423 700.399 347.034 708.28 347.034C716.16 347.034 722.549 353.423 722.549 361.304ZM722.549 462.774C722.549 470.655 716.16 477.044 708.28 477.044C700.399 477.044 694.01 470.655 694.01 462.774C694.01 454.894 700.399 448.505 708.28 448.505C716.16 448.505 722.549 454.894 722.549 462.774ZM722.549 564.245C722.549 572.126 716.16 578.514 708.28 578.514C700.399 578.514 694.01 572.126 694.01 564.245C694.01 556.364 700.399 549.976 708.28 549.976C716.16 549.976 722.549 556.364 722.549 564.245ZM722.549 665.716C722.549 673.596 716.16 679.985 708.28 679.985C700.399 679.985 694.01 673.596 694.01 665.716C694.01 657.835 700.399 651.446 708.28 651.446C716.16 651.446 722.549 657.835 722.549 665.716ZM250.076 781.456C257.957 781.456 264.346 775.067 264.346 767.186C264.346 759.306 257.957 752.917 250.076 752.917C242.196 752.917 235.807 759.306 235.807 767.186C235.807 775.067 242.196 781.456 250.076 781.456ZM708.28 781.456C716.16 781.456 722.549 775.067 722.549 767.186C722.549 759.306 716.16 752.917 708.28 752.917C700.399 752.917 694.01 759.306 694.01 767.186C694.01 775.067 700.399 781.456 708.28 781.456ZM708.28 887.929C716.16 887.929 722.549 881.54 722.549 873.659C722.549 865.779 716.16 859.39 708.28 859.39C700.399 859.39 694.01 865.779 694.01 873.659C694.01 881.54 700.399 887.929 708.28 887.929ZM722.549 976.584C722.549 984.464 716.16 990.853 708.28 990.853C700.399 990.853 694.01 984.464 694.01 976.584C694.01 968.703 700.399 962.314 708.28 962.314C716.16 962.314 722.549 968.703 722.549 976.584ZM264.346 873.659C264.346 881.54 257.957 887.929 250.076 887.929C242.196 887.929 235.807 881.54 235.807 873.659C235.807 865.779 242.196 859.39 250.076 859.39C257.957 859.39 264.346 865.779 264.346 873.659ZM250.076 990.853C257.957 990.853 264.346 984.464 264.346 976.584C264.346 968.703 257.957 962.314 250.076 962.314C242.196 962.314 235.807 968.703 235.807 976.584C235.807 984.464 242.196 990.853 250.076 990.853ZM250.076 679.985C257.957 679.985 264.346 673.596 264.346 665.716C264.346 657.835 257.957 651.446 250.076 651.446C242.196 651.446 235.807 657.835 235.807 665.716C235.807 673.596 242.196 679.985 250.076 679.985ZM250.076 578.514C257.957 578.514 264.346 572.126 264.346 564.245C264.346 556.364 257.957 549.976 250.076 549.976C242.196 549.976 235.807 556.364 235.807 564.245C235.807 572.126 242.196 578.514 250.076 578.514ZM250.076 477.044C257.957 477.044 264.346 470.655 264.346 462.774C264.346 454.894 257.957 448.505 250.076 448.505C242.196 448.505 235.807 454.894 235.807 462.774C235.807 470.655 242.196 477.044 250.076 477.044ZM250.076 375.573C257.957 375.573 264.346 369.184 264.346 361.304C264.346 353.423 257.957 347.034 250.076 347.034C242.196 347.034 235.807 353.423 235.807 361.304C235.807 369.184 242.196 375.573 250.076 375.573ZM250.076 274.102C257.957 274.102 264.346 267.714 264.346 259.833C264.346 251.952 257.957 245.564 250.076 245.564C242.196 245.564 235.807 251.952 235.807 259.833C235.807 267.714 242.196 274.102 250.076 274.102ZM250.076 172.632C257.957 172.632 264.346 166.243 264.346 158.363C264.346 150.482 257.957 144.093 250.076 144.093C242.196 144.093 235.807 150.482 235.807 158.363C235.807 166.243 242.196 172.632 250.076 172.632ZM250.076 71.1612C257.957 71.1612 264.346 64.7726 264.346 56.8919C264.346 49.0111 257.957 42.6226 250.076 42.6226C242.196 42.6226 235.807 49.0111 235.807 56.8919C235.807 64.7726 242.196 71.1612 250.076 71.1612Z" fill="#EFEFEF"/>
</g>
<g filter="url(#filter3_f)">
<path fill-rule="evenodd" clip-rule="evenodd" d="M631.138 54.5257C631.138 62.4064 624.749 68.795 616.869 68.795C608.988 68.795 602.599 62.4064 602.599 54.5257C602.599 46.6449 608.988 40.2563 616.869 40.2563C624.749 40.2563 631.138 46.6449 631.138 54.5257ZM631.138 155.996C631.138 163.877 624.749 170.266 616.869 170.266C608.988 170.266 602.599 163.877 602.599 155.996C602.599 148.116 608.988 141.727 616.869 141.727C624.749 141.727 631.138 148.116 631.138 155.996ZM631.138 257.467C631.138 265.348 624.749 271.736 616.869 271.736C608.988 271.736 602.599 265.348 602.599 257.467C602.599 249.586 608.988 243.198 616.869 243.198C624.749 243.198 631.138 249.586 631.138 257.467ZM631.138 358.938C631.138 366.818 624.749 373.207 616.869 373.207C608.988 373.207 602.599 366.818 602.599 358.938C602.599 351.057 608.988 344.668 616.869 344.668C624.749 344.668 631.138 351.057 631.138 358.938ZM631.138 460.408C631.138 468.289 624.749 474.677 616.869 474.677C608.988 474.677 602.599 468.289 602.599 460.408C602.599 452.527 608.988 446.139 616.869 446.139C624.749 446.139 631.138 452.527 631.138 460.408ZM631.138 561.879C631.138 569.76 624.749 576.148 616.869 576.148C608.988 576.148 602.599 569.76 602.599 561.879C602.599 553.998 608.988 547.61 616.869 547.61C624.749 547.61 631.138 553.998 631.138 561.879ZM631.138 663.349C631.138 671.23 624.749 677.619 616.869 677.619C608.988 677.619 602.599 671.23 602.599 663.349C602.599 655.469 608.988 649.08 616.869 649.08C624.749 649.08 631.138 655.469 631.138 663.349ZM341.788 779.089C349.669 779.089 356.057 772.701 356.057 764.82C356.057 756.939 349.669 750.551 341.788 750.551C333.907 750.551 327.519 756.939 327.519 764.82C327.519 772.701 333.907 779.089 341.788 779.089ZM616.869 779.089C624.749 779.089 631.138 772.701 631.138 764.82C631.138 756.939 624.749 750.551 616.869 750.551C608.988 750.551 602.599 756.939 602.599 764.82C602.599 772.701 608.988 779.089 616.869 779.089ZM616.869 885.563C624.749 885.563 631.138 879.174 631.138 871.293C631.138 863.413 624.749 857.024 616.869 857.024C608.988 857.024 602.599 863.413 602.599 871.293C602.599 879.174 608.988 885.563 616.869 885.563ZM631.138 974.217C631.138 982.098 624.749 988.487 616.869 988.487C608.988 988.487 602.599 982.098 602.599 974.217C602.599 966.337 608.988 959.948 616.869 959.948C624.749 959.948 631.138 966.337 631.138 974.217ZM356.057 871.293C356.057 879.174 349.669 885.563 341.788 885.563C333.907 885.563 327.519 879.174 327.519 871.293C327.519 863.413 333.907 857.024 341.788 857.024C349.669 857.024 356.057 863.413 356.057 871.293ZM341.788 988.487C349.669 988.487 356.057 982.098 356.057 974.217C356.057 966.337 349.669 959.948 341.788 959.948C333.907 959.948 327.519 966.337 327.519 974.217C327.519 982.098 333.907 988.487 341.788 988.487ZM341.788 677.619C349.669 677.619 356.057 671.23 356.057 663.349C356.057 655.469 349.669 649.08 341.788 649.08C333.907 649.08 327.519 655.469 327.519 663.349C327.519 671.23 333.907 677.619 341.788 677.619ZM341.788 576.148C349.669 576.148 356.057 569.76 356.057 561.879C356.057 553.998 349.669 547.61 341.788 547.61C333.907 547.61 327.519 553.998 327.519 561.879C327.519 569.76 333.907 576.148 341.788 576.148ZM341.788 474.677C349.669 474.677 356.057 468.289 356.057 460.408C356.057 452.527 349.669 446.139 341.788 446.139C333.907 446.139 327.519 452.527 327.519 460.408C327.519 468.289 333.907 474.677 341.788 474.677ZM341.788 373.207C349.669 373.207 356.057 366.818 356.057 358.938C356.057 351.057 349.669 344.668 341.788 344.668C333.907 344.668 327.519 351.057 327.519 358.938C327.519 366.818 333.907 373.207 341.788 373.207ZM341.788 271.736C349.669 271.736 356.057 265.348 356.057 257.467C356.057 249.586 349.669 243.198 341.788 243.198C333.907 243.198 327.519 249.586 327.519 257.467C327.519 265.348 333.907 271.736 341.788 271.736ZM341.788 170.266C349.669 170.266 356.057 163.877 356.057 155.996C356.057 148.116 349.669 141.727 341.788 141.727C333.907 141.727 327.519 148.116 327.519 155.996C327.519 163.877 333.907 170.266 341.788 170.266ZM341.788 68.795C349.669 68.795 356.057 62.4064 356.057 54.5257C356.057 46.6449 349.669 40.2563 341.788 40.2563C333.907 40.2563 327.519 46.6449 327.519 54.5257C327.519 62.4064 333.907 68.795 341.788 68.795Z" fill="#EFEFEF"/>
</g>
<path fill-rule="evenodd" clip-rule="evenodd" d="M538.934 53.3426C538.934 61.2233 532.546 67.6119 524.665 67.6119C516.784 67.6119 510.395 61.2233 510.395 53.3426C510.395 45.4618 516.784 39.0732 524.665 39.0732C532.546 39.0732 538.934 45.4618 538.934 53.3426ZM538.934 154.813C538.934 162.694 532.546 169.082 524.665 169.082C516.784 169.082 510.395 162.694 510.395 154.813C510.395 146.932 516.784 140.544 524.665 140.544C532.546 140.544 538.934 146.932 538.934 154.813ZM538.934 256.284C538.934 264.165 532.546 270.553 524.665 270.553C516.784 270.553 510.395 264.165 510.395 256.284C510.395 248.403 516.784 242.015 524.665 242.015C532.546 242.015 538.934 248.403 538.934 256.284ZM538.934 357.754C538.934 365.635 532.546 372.024 524.665 372.024C516.784 372.024 510.395 365.635 510.395 357.754C510.395 349.874 516.784 343.485 524.665 343.485C532.546 343.485 538.934 349.874 538.934 357.754ZM538.934 459.225C538.934 467.106 532.546 473.494 524.665 473.494C516.784 473.494 510.395 467.106 510.395 459.225C510.395 451.344 516.784 444.956 524.665 444.956C532.546 444.956 538.934 451.344 538.934 459.225ZM538.934 560.696C538.934 568.576 532.546 574.965 524.665 574.965C516.784 574.965 510.395 568.576 510.395 560.696C510.395 552.815 516.784 546.426 524.665 546.426C532.546 546.426 538.934 552.815 538.934 560.696ZM538.934 662.166C538.934 670.047 532.546 676.436 524.665 676.436C516.784 676.436 510.395 670.047 510.395 662.166C510.395 654.286 516.784 647.897 524.665 647.897C532.546 647.897 538.934 654.286 538.934 662.166ZM433.5 777.906C441.38 777.906 447.769 771.518 447.769 763.637C447.769 755.756 441.38 749.368 433.5 749.368C425.619 749.368 419.23 755.756 419.23 763.637C419.23 771.518 425.619 777.906 433.5 777.906ZM524.665 777.906C532.546 777.906 538.934 771.518 538.934 763.637C538.934 755.756 532.546 749.368 524.665 749.368C516.784 749.368 510.395 755.756 510.395 763.637C510.395 771.518 516.784 777.906 524.665 777.906ZM524.665 884.38C532.546 884.38 538.934 877.991 538.934 870.11C538.934 862.229 532.546 855.841 524.665 855.841C516.784 855.841 510.395 862.229 510.395 870.11C510.395 877.991 516.784 884.38 524.665 884.38ZM538.934 973.034C538.934 980.915 532.546 987.304 524.665 987.304C516.784 987.304 510.395 980.915 510.395 973.034C510.395 965.154 516.784 958.765 524.665 958.765C532.546 958.765 538.934 965.154 538.934 973.034ZM447.769 870.11C447.769 877.991 441.38 884.38 433.5 884.38C425.619 884.38 419.23 877.991 419.23 870.11C419.23 862.229 425.619 855.841 433.5 855.841C441.38 855.841 447.769 862.229 447.769 870.11ZM433.5 987.304C441.38 987.304 447.769 980.915 447.769 973.034C447.769 965.154 441.38 958.765 433.5 958.765C425.619 958.765 419.23 965.154 419.23 973.034C419.23 980.915 425.619 987.304 433.5 987.304ZM433.5 676.436C441.38 676.436 447.769 670.047 447.769 662.166C447.769 654.286 441.38 647.897 433.5 647.897C425.619 647.897 419.23 654.286 419.23 662.166C419.23 670.047 425.619 676.436 433.5 676.436ZM433.5 574.965C441.38 574.965 447.769 568.576 447.769 560.696C447.769 552.815 441.38 546.426 433.5 546.426C425.619 546.426 419.23 552.815 419.23 560.696C419.23 568.576 425.619 574.965 433.5 574.965ZM433.5 473.494C441.38 473.494 447.769 467.106 447.769 459.225C447.769 451.344 441.38 444.956 433.5 444.956C425.619 444.956 419.23 451.344 419.23 459.225C419.23 467.106 425.619 473.494 433.5 473.494ZM433.5 372.024C441.38 372.024 447.769 365.635 447.769 357.754C447.769 349.874 441.38 343.485 433.5 343.485C425.619 343.485 419.23 349.874 419.23 357.754C419.23 365.635 425.619 372.024 433.5 372.024ZM433.5 270.553C441.38 270.553 447.769 264.165 447.769 256.284C447.769 248.403 441.38 242.015 433.5 242.015C425.619 242.015 419.23 248.403 419.23 256.284C419.23 264.165 425.619 270.553 433.5 270.553ZM433.5 169.082C441.38 169.082 447.769 162.694 447.769 154.813C447.769 146.932 441.38 140.544 433.5 140.544C425.619 140.544 419.23 146.932 419.23 154.813C419.23 162.694 425.619 169.082 433.5 169.082ZM433.5 67.6119C441.38 67.6119 447.769 61.2233 447.769 53.3426C447.769 45.4618 441.38 39.0732 433.5 39.0732C425.619 39.0732 419.23 45.4618 419.23 53.3426C419.23 61.2233 425.619 67.6119 433.5 67.6119Z" fill="#EFEFEF"/>
<defs>
<filter id="filter0_f" x="0.609562" y="0.665226" width="959.329" height="1029.78" filterUnits="userSpaceOnUse" color-interpolation-filters="sRGB">
<feFlood flood-opacity="0" result="BackgroundImageFix"/>
<feBlend mode="normal" in="SourceGraphic" in2="BackgroundImageFix" result="shape"/>
<feGaussianBlur stdDeviation="20.3871" result="effect1_foregroundBlur"/>
</filter>
<filter id="filter1_f" x="119.631" y="19.3406" width="718.794" height="997.159" filterUnits="userSpaceOnUse" color-interpolation-filters="sRGB">
<feFlood flood-opacity="0" result="BackgroundImageFix"/>
<feBlend mode="normal" in="SourceGraphic" in2="BackgroundImageFix" result="shape"/>
<feGaussianBlur stdDeviation="12.2323" result="effect1_foregroundBlur"/>
</filter>
<filter id="filter2_f" x="219.497" y="26.3129" width="519.361" height="980.85" filterUnits="userSpaceOnUse" color-interpolation-filters="sRGB">
<feFlood flood-opacity="0" result="BackgroundImageFix"/>
<feBlend mode="normal" in="SourceGraphic" in2="BackgroundImageFix" result="shape"/>
<feGaussianBlur stdDeviation="8.15485" result="effect1_foregroundBlur"/>
</filter>
<filter id="filter3_f" x="319.364" y="32.1015" width="319.929" height="964.54" filterUnits="userSpaceOnUse" color-interpolation-filters="sRGB">
<feFlood flood-opacity="0" result="BackgroundImageFix"/>
<feBlend mode="normal" in="SourceGraphic" in2="BackgroundImageFix" result="shape"/>
<feGaussianBlur stdDeviation="4.07742" result="effect1_foregroundBlur"/>
</filter>
</defs>
</svg>
