<svg width="98" height="78" viewBox="0 0 98 78" fill="none" xmlns="http://www.w3.org/2000/svg">
<path fill-rule="evenodd" clip-rule="evenodd" d="M60.4521 5.0625C64.2069 1.6875 68.963 0 74.7203 0C81.4789 0 87.0485 2.25 91.4291 6.75C95.8097 11.25 98 17.875 98 26.625C98 34.875 96.811 41.9375 94.433 47.8125C92.0549 53.6875 89.1762 58.6875 85.7969 62.8125C82.4176 66.9375 78.9132 70.25 75.2835 72.75C71.6539 75.25 68.4623 77 65.7088 78L56.3218 64.875C61.8289 62.125 66.272 58.4375 69.6513 53.8125C73.0307 49.1875 74.7203 43.375 74.7203 36.375C73.719 36.625 72.3423 36.75 70.59 36.75C65.5837 36.75 61.7037 35 58.9502 31.5C56.1967 28 54.8199 23.75 54.8199 18.75C54.8199 13 56.6973 8.4375 60.4521 5.0625ZM5.63219 5.0625C9.38697 1.6875 14.143 0 19.9004 0C26.659 0 32.2286 2.25 36.6092 6.75C40.9898 11.25 43.1801 17.875 43.1801 26.625C43.1801 34.875 41.9911 41.9375 39.613 47.8125C37.235 53.6875 34.3563 58.6875 30.977 62.8125C27.5977 66.9375 24.0932 70.25 20.4636 72.75C16.834 75.25 13.6424 77 10.8889 78L1.50191 64.875C7.00894 62.125 11.4521 58.4375 14.8314 53.8125C18.2107 49.1875 19.9004 43.375 19.9004 36.375C18.8991 36.625 17.5223 36.75 15.7701 36.75C10.7637 36.75 6.88378 35 4.13026 31.5C1.37675 28 0 23.75 0 18.75C0 13 1.8774 8.4375 5.63219 5.0625Z" fill="#4B4B51"/>
</svg>
