<svg width="24" height="20" viewBox="0 0 24 20" fill="none" xmlns="http://www.w3.org/2000/svg">
<path fill-rule="evenodd" clip-rule="evenodd" d="M12.9259 13.2406V13.3079H12.8587L12.633 13.5335C12.2725 13.894 11.7053 13.9217 11.313 13.6167L11.2188 13.5335L10.9932 13.3079H10.9259V13.2406L6.1043 8.41898L7.51852 7.00477L10.9259 10.4119V0.9375H12.9259V10.4112L16.3333 7.00477L17.7475 8.41898L12.9259 13.2406ZM2 10.6181V17.9514H22V10.6181H24V18.9515C24 19.4643 23.614 19.887 23.1166 19.9447L23 19.9515H1C0.487164 19.9515 0.0644928 19.5654 0.00672773 19.0681L0 18.9515V10.6181H2Z" fill="#2D2D32"/>
</svg>
