<svg width="315" height="243" viewBox="0 0 315 243" fill="none" xmlns="http://www.w3.org/2000/svg">
<path fill-rule="evenodd" clip-rule="evenodd" d="M249.5 130.967C285.398 130.967 314.5 101.866 314.5 65.9673C314.5 30.0688 285.398 0.967285 249.5 0.967285C213.601 0.967285 184.5 30.0688 184.5 65.9673C184.5 101.866 213.601 130.967 249.5 130.967ZM249.5 182.967C273.552 182.967 295.909 175.71 314.5 163.265V242.463H0.5V1.46334H151.872C139.629 19.9557 132.5 42.1289 132.5 65.9673C132.5 130.585 184.883 182.967 249.5 182.967Z" fill="#2D2D32"/>
<mask id="mask0" mask-type="alpha" maskUnits="userSpaceOnUse" x="0" y="0" width="315" height="243">
<path fill-rule="evenodd" clip-rule="evenodd" d="M249.5 130.967C285.398 130.967 314.5 101.866 314.5 65.9673C314.5 30.0688 285.398 0.967285 249.5 0.967285C213.601 0.967285 184.5 30.0688 184.5 65.9673C184.5 101.866 213.601 130.967 249.5 130.967ZM249.5 182.967C273.552 182.967 295.909 175.71 314.5 163.265V242.463H0.5V1.46334H151.872C139.629 19.9557 132.5 42.1289 132.5 65.9673C132.5 130.585 184.883 182.967 249.5 182.967Z" fill="white"/>
</mask>
<g mask="url(#mask0)">
</g>
</svg>
