<svg width="717" height="1421" viewBox="0 0 717 1421" fill="none" xmlns="http://www.w3.org/2000/svg">
<circle cx="692.032" cy="695.893" r="558.331" transform="rotate(164 692.032 695.893)" stroke="#A7A7AD"/>
<circle cx="708.337" cy="691.217" r="542.783" transform="rotate(164 708.337 691.217)" stroke="#A7A7AD"/>
<circle cx="724.642" cy="686.542" r="527.234" transform="rotate(164 724.642 686.542)" stroke="#A7A7AD"/>
<circle cx="740.268" cy="682.061" r="512.393" transform="rotate(164 740.268 682.061)" stroke="#A7A7AD"/>
<circle cx="755.893" cy="677.581" r="497.551" transform="rotate(164 755.893 677.581)" stroke="#A7A7AD"/>
<circle cx="771.519" cy="673.1" r="482.709" transform="rotate(164 771.519 673.1)" stroke="#A7A7AD"/>
<circle cx="787.823" cy="668.425" r="467.161" transform="rotate(164 787.823 668.425)" stroke="#A7A7AD"/>
<circle cx="803.449" cy="663.944" r="452.319" transform="rotate(164 803.449 663.944)" stroke="#A7A7AD"/>
<circle cx="819.075" cy="659.464" r="437.477" transform="rotate(164 819.075 659.464)" stroke="#A7A7AD"/>
<circle cx="834.7" cy="654.983" r="422.636" transform="rotate(164 834.7 654.983)" stroke="#A7A7AD"/>
<circle cx="850.326" cy="650.503" r="407.794" transform="rotate(164 850.326 650.503)" stroke="#A7A7AD"/>
<circle cx="865.951" cy="646.022" r="392.952" transform="rotate(164 865.951 646.022)" stroke="#A7A7AD"/>
<circle cx="921.276" cy="838.963" r="378.11" transform="rotate(164 921.276 838.963)" stroke="#A7A7AD"/>
<circle cx="936.902" cy="834.483" r="363.269" transform="rotate(164 936.902 834.483)" stroke="#A7A7AD"/>
<circle cx="952.527" cy="830.002" r="348.427" transform="rotate(164 952.527 830.002)" stroke="#A7A7AD"/>
<circle cx="968.153" cy="825.522" r="333.585" transform="rotate(164 968.153 825.522)" stroke="#A7A7AD"/>
<circle cx="984.458" cy="820.846" r="318.037" transform="rotate(164 984.458 820.846)" stroke="#A7A7AD"/>
<circle cx="1000.76" cy="816.171" r="302.488" transform="rotate(164 1000.76 816.171)" stroke="#A7A7AD"/>
<circle cx="1017.07" cy="811.496" r="286.94" transform="rotate(164 1017.07 811.496)" stroke="#A7A7AD"/>
<circle cx="1033.37" cy="806.82" r="271.391" transform="rotate(164 1033.37 806.82)" stroke="#A7A7AD"/>
</svg>
