<svg width="25" height="24" viewBox="0 0 25 24" fill="none" xmlns="http://www.w3.org/2000/svg">
<path fill-rule="evenodd" clip-rule="evenodd" d="M12.0352 0C18.6626 0 24.0352 5.37258 24.0352 12C24.0352 18.6274 18.6626 24 12.0352 24C5.40774 24 0.0351562 18.6274 0.0351562 12C0.0351562 5.37258 5.40774 0 12.0352 0ZM12.0352 1.5C6.23617 1.5 1.53516 6.20101 1.53516 12C1.53516 17.799 6.23617 22.5 12.0352 22.5C17.8341 22.5 22.5352 17.799 22.5352 12C22.5352 6.20101 17.8341 1.5 12.0352 1.5ZM18.3261 8.26988L17.1884 7.29237L10.7062 14.836L7.15479 11.1498L6.07468 12.1907L10.7707 17.0639L18.3261 8.26988Z" fill="white"/>
</svg>
